<?xml version="1.0" standalone="no"?>
  <!DOCTYPE svg PUBLIC "-//W3C//DTD SVG 1.1//EN" "http://www.w3.org/Graphics/SVG/1.1/DTD/svg11.dtd" >
  <svg>
  <metadata>
  Created by font-carrier
  </metadata>
  <defs>
  <font id="Cormorant-Bold" horiz-adv-x="1302" vert-adv-y="1302" >
    <font-face
      
      font-family="Cormorant"
      
      font-weight="400"
      
      font-stretch="normal"
      
      units-per-em="1000"
      
      ascent="924"
      
      descent="-287"
      
    />
      <missing-glyph />

      

      
      <glyph glyph-name="uni41" unicode="&#x41;" d="M717 12Q722 12 722 6Q722 0 717 0Q697 0 655 2Q611 4 592 4Q567 4 531 2Q497 0 477 0Q473 0 473 6Q473 12 477 12Q503 12 514.50 17.50Q526 23 526 37Q526 54 506 94L402 299L224 299L153 142Q140 113 140 88Q140 52 165.50 32Q191 12 234 12Q239 12 239 6Q239 0 234 0Q216 0 182 2Q144 4 116 4Q89 4 51 2Q17 0-4 0Q-8 0-8 6Q-8 12-4 12Q24 12 43 23.50Q62 35 81 64.50Q100 94 126 152L343 629Q345 632 352 632Q360 632 361 629L611 137Q646 66 669 39Q692 12 717 12M237 327L388 327L308 485L237 327Z"  horiz-adv-x="716" vert-adv-y="1000"  />

      
      <glyph glyph-name="unic1" unicode="&#xc1;" d="M717 12Q722 12 722 6Q722 0 717 0Q697 0 655 2Q611 4 592 4Q567 4 531 2Q497 0 477 0Q473 0 473 6Q473 12 477 12Q503 12 514.50 17.50Q526 23 526 37Q526 54 506 94L402 299L224 299L153 142Q140 113 140 88Q140 52 165.50 32Q191 12 234 12Q239 12 239 6Q239 0 234 0Q216 0 182 2Q144 4 116 4Q89 4 51 2Q17 0-4 0Q-8 0-8 6Q-8 12-4 12Q24 12 43 23.50Q62 35 81 64.50Q100 94 126 152L343 629Q345 632 352 632Q360 632 361 629L611 137Q646 66 669 39Q692 12 717 12M237 327L388 327L308 485L237 327M255 678Q251 678 250 682.50Q249 687 252 689Q281 710 333 755Q363 781 378 793Q383 798 413.50 789.50Q444 781 467.50 769.50Q491 758 479 756Q417 741 365.50 722.50Q314 704 257 679L255 678Z"  horiz-adv-x="716" vert-adv-y="1000"  />

      
      <glyph glyph-name="uni0102" unicode="&#x0102;" d="M717 12Q722 12 722 6Q722 0 717 0Q697 0 655 2Q611 4 592 4Q567 4 531 2Q497 0 477 0Q473 0 473 6Q473 12 477 12Q503 12 514.50 17.50Q526 23 526 37Q526 54 506 94L402 299L224 299L153 142Q140 113 140 88Q140 52 165.50 32Q191 12 234 12Q239 12 239 6Q239 0 234 0Q216 0 182 2Q144 4 116 4Q89 4 51 2Q17 0-4 0Q-8 0-8 6Q-8 12-4 12Q24 12 43 23.50Q62 35 81 64.50Q100 94 126 152L343 629Q345 632 352 632Q360 632 361 629L611 137Q646 66 669 39Q692 12 717 12M237 327L388 327L308 485L237 327M354 690Q304 690 277.50 722.50Q251 755 251 817Q251 820 256.50 820Q262 820 262 818Q262 800 289 784Q316 768 354 768Q391 768 418 784Q445 800 445 818Q445 820 450.50 820Q456 820 456 817Q456 755 430 722.50Q404 690 354 690Z"  horiz-adv-x="716" vert-adv-y="1000"  />

      
      <glyph glyph-name="uni1EAE" unicode="&#x1EAE;" d="M717 12Q722 12 722 6Q722 0 717 0Q697 0 655 2Q611 4 592 4Q567 4 531 2Q497 0 477 0Q473 0 473 6Q473 12 477 12Q503 12 514.50 17.50Q526 23 526 37Q526 54 506 94L402 299L224 299L153 142Q140 113 140 88Q140 52 165.50 32Q191 12 234 12Q239 12 239 6Q239 0 234 0Q216 0 182 2Q144 4 116 4Q89 4 51 2Q17 0-4 0Q-8 0-8 6Q-8 12-4 12Q24 12 43 23.50Q62 35 81 64.50Q100 94 126 152L343 629Q345 632 352 632Q360 632 361 629L611 137Q646 66 669 39Q692 12 717 12M237 327L388 327L308 485L237 327M354 667Q304 667 277.50 699.50Q251 732 251 793Q251 797 256.50 797Q262 797 262 794Q262 776 289 760Q316 744 354 744Q391 744 418 760Q445 776 445 794Q445 797 450.50 797Q456 797 456 793Q456 731 430 699Q404 667 354 667M293 779Q290 779 287.50 783.50Q285 788 287 790Q325 852 345 894Q347 897 353 897Q367 897 394.50 888.50Q422 880 439.50 870.50Q457 861 447 857Q405 842 370 823.50Q335 805 295 780L293 779Z"  horiz-adv-x="716" vert-adv-y="1000"  />

      
      <glyph glyph-name="uni1EB6" unicode="&#x1EB6;" d="M717 12Q722 12 722 6Q722 0 717 0Q697 0 655 2Q611 4 592 4Q567 4 531 2Q497 0 477 0Q473 0 473 6Q473 12 477 12Q503 12 514.50 17.50Q526 23 526 37Q526 54 506 94L402 299L224 299L153 142Q140 113 140 88Q140 52 165.50 32Q191 12 234 12Q239 12 239 6Q239 0 234 0Q216 0 182 2Q144 4 116 4Q89 4 51 2Q17 0-4 0Q-8 0-8 6Q-8 12-4 12Q24 12 43 23.50Q62 35 81 64.50Q100 94 126 152L343 629Q345 632 352 632Q360 632 361 629L611 137Q646 66 669 39Q692 12 717 12M237 327L388 327L308 485L237 327M359-207Q330-207 314-191Q298-175 298-146Q298-120 314.50-104.50Q331-89 359-89Q386-89 401.50-104.50Q417-120 417-146Q417-175 402-191Q387-207 359-207M354 690Q304 690 277.50 722.50Q251 755 251 817Q251 820 256.50 820Q262 820 262 818Q262 800 289 784Q316 768 354 768Q391 768 418 784Q445 800 445 818Q445 820 450.50 820Q456 820 456 817Q456 755 430 722.50Q404 690 354 690Z"  horiz-adv-x="716" vert-adv-y="1000"  />

      
      <glyph glyph-name="uni1EB0" unicode="&#x1EB0;" d="M717 12Q722 12 722 6Q722 0 717 0Q697 0 655 2Q611 4 592 4Q567 4 531 2Q497 0 477 0Q473 0 473 6Q473 12 477 12Q503 12 514.50 17.50Q526 23 526 37Q526 54 506 94L402 299L224 299L153 142Q140 113 140 88Q140 52 165.50 32Q191 12 234 12Q239 12 239 6Q239 0 234 0Q216 0 182 2Q144 4 116 4Q89 4 51 2Q17 0-4 0Q-8 0-8 6Q-8 12-4 12Q24 12 43 23.50Q62 35 81 64.50Q100 94 126 152L343 629Q345 632 352 632Q360 632 361 629L611 137Q646 66 669 39Q692 12 717 12M237 327L388 327L308 485L237 327M354 667Q304 667 277.50 699.50Q251 732 251 793Q251 797 256.50 797Q262 797 262 794Q262 776 289 760Q316 744 354 744Q391 744 418 760Q445 776 445 794Q445 797 450.50 797Q456 797 456 793Q456 731 430 699Q404 667 354 667M405 780Q365 806 332 823.50Q299 841 257 857Q247 861 264 870.50Q281 880 308.50 888.50Q336 897 350 897Q357 897 358 894Q362 886 378.50 852Q395 818 413 790Q414 789 414 787Q414 784 411.50 781.50Q409 779 405 780Z"  horiz-adv-x="716" vert-adv-y="1000"  />

      
      <glyph glyph-name="uni1EB2" unicode="&#x1EB2;" d="M717 12Q722 12 722 6Q722 0 717 0Q697 0 655 2Q611 4 592 4Q567 4 531 2Q497 0 477 0Q473 0 473 6Q473 12 477 12Q503 12 514.50 17.50Q526 23 526 37Q526 54 506 94L402 299L224 299L153 142Q140 113 140 88Q140 52 165.50 32Q191 12 234 12Q239 12 239 6Q239 0 234 0Q216 0 182 2Q144 4 116 4Q89 4 51 2Q17 0-4 0Q-8 0-8 6Q-8 12-4 12Q24 12 43 23.50Q62 35 81 64.50Q100 94 126 152L343 629Q345 632 352 632Q360 632 361 629L611 137Q646 66 669 39Q692 12 717 12M237 327L388 327L308 485L237 327M354 667Q304 667 277.50 699.50Q251 732 251 793Q251 797 256.50 797Q262 797 262 794Q262 776 289 760Q316 744 354 744Q391 744 418 760Q445 776 445 794Q445 797 450.50 797Q456 797 456 793Q456 731 430 699Q404 667 354 667M343 773Q341 783 341 787Q341 801 351 825Q360 850 360 860Q360 876 351 883.50Q342 891 330 891Q319 891 312 888L310 887Q307 887 305 890.50Q303 894 305 896Q334 914 366 914Q391 914 406.50 901.50Q422 889 422 871Q422 857 413 845.50Q404 834 386 818Q370 805 362 795Q354 785 354 773Q354 771 349 770.50Q344 770 343 773Z"  horiz-adv-x="716" vert-adv-y="1000"  />

      
      <glyph glyph-name="uni1EB4" unicode="&#x1EB4;" d="M717 12Q722 12 722 6Q722 0 717 0Q697 0 655 2Q611 4 592 4Q567 4 531 2Q497 0 477 0Q473 0 473 6Q473 12 477 12Q503 12 514.50 17.50Q526 23 526 37Q526 54 506 94L402 299L224 299L153 142Q140 113 140 88Q140 52 165.50 32Q191 12 234 12Q239 12 239 6Q239 0 234 0Q216 0 182 2Q144 4 116 4Q89 4 51 2Q17 0-4 0Q-8 0-8 6Q-8 12-4 12Q24 12 43 23.50Q62 35 81 64.50Q100 94 126 152L343 629Q345 632 352 632Q360 632 361 629L611 137Q646 66 669 39Q692 12 717 12M237 327L388 327L308 485L237 327M354 670Q304 670 277.50 702.50Q251 735 251 797Q251 800 256.50 800Q262 800 262 798Q262 780 289 764Q316 748 354 748Q391 748 418 764Q445 780 445 798Q445 800 450.50 800Q456 800 456 797Q456 735 430 702.50Q404 670 354 670M431 875Q448 875 458.50 881Q469 887 482 902L484 903Q486 903 488 900Q490 897 489 895Q462 847 445.50 831Q429 815 406 815Q387 815 350 826Q333 831 315 835Q297 839 281 839Q262 839 254 834Q246 829 230 812L229 812Q226 812 223.50 814.50Q221 817 223 819Q268 900 310 900Q321 900 357 890Q375 884 395 879.50Q415 875 431 875Z"  horiz-adv-x="716" vert-adv-y="1000"  />

      
      <glyph glyph-name="uni01CD" unicode="&#x01CD;" d="M717 12Q722 12 722 6Q722 0 717 0Q697 0 655 2Q611 4 592 4Q567 4 531 2Q497 0 477 0Q473 0 473 6Q473 12 477 12Q503 12 514.50 17.50Q526 23 526 37Q526 54 506 94L402 299L224 299L153 142Q140 113 140 88Q140 52 165.50 32Q191 12 234 12Q239 12 239 6Q239 0 234 0Q216 0 182 2Q144 4 116 4Q89 4 51 2Q17 0-4 0Q-8 0-8 6Q-8 12-4 12Q24 12 43 23.50Q62 35 81 64.50Q100 94 126 152L343 629Q345 632 352 632Q360 632 361 629L611 137Q646 66 669 39Q692 12 717 12M237 327L388 327L308 485L237 327M239 802L239 804Q239 806 241.50 808Q244 810 245 809L354 771L462 811L463 811Q466 811 467.50 808.50Q469 806 467 804L365 687Q361 683 354 683Q346 683 342 687L239 802Z"  horiz-adv-x="716" vert-adv-y="1000"  />

      
      <glyph glyph-name="unic2" unicode="&#xc2;" d="M717 12Q722 12 722 6Q722 0 717 0Q697 0 655 2Q611 4 592 4Q567 4 531 2Q497 0 477 0Q473 0 473 6Q473 12 477 12Q503 12 514.50 17.50Q526 23 526 37Q526 54 506 94L402 299L224 299L153 142Q140 113 140 88Q140 52 165.50 32Q191 12 234 12Q239 12 239 6Q239 0 234 0Q216 0 182 2Q144 4 116 4Q89 4 51 2Q17 0-4 0Q-8 0-8 6Q-8 12-4 12Q24 12 43 23.50Q62 35 81 64.50Q100 94 126 152L343 629Q345 632 352 632Q360 632 361 629L611 137Q646 66 669 39Q692 12 717 12M237 327L388 327L308 485L237 327M342 771Q347 776 353 776Q360 776 365 771L467 655Q468 655 468 653Q468 651 465.50 649Q463 647 462 648L354 687L245 648Q243 647 240 650.50Q237 654 239 655L342 771Z"  horiz-adv-x="716" vert-adv-y="1000"  />

      
      <glyph glyph-name="uni1EA4" unicode="&#x1EA4;" d="M717 12Q722 12 722 6Q722 0 717 0Q697 0 655 2Q611 4 592 4Q567 4 531 2Q497 0 477 0Q473 0 473 6Q473 12 477 12Q503 12 514.50 17.50Q526 23 526 37Q526 54 506 94L402 299L224 299L153 142Q140 113 140 88Q140 52 165.50 32Q191 12 234 12Q239 12 239 6Q239 0 234 0Q216 0 182 2Q144 4 116 4Q89 4 51 2Q17 0-4 0Q-8 0-8 6Q-8 12-4 12Q24 12 43 23.50Q62 35 81 64.50Q100 94 126 152L343 629Q345 632 352 632Q360 632 361 629L611 137Q646 66 669 39Q692 12 717 12M237 327L388 327L308 485L237 327M342 771Q347 776 353 776Q360 776 365 771L467 655Q468 655 468 653Q468 651 465.50 649Q463 647 462 648L354 687L245 648Q243 647 240 650.50Q237 654 239 655L342 771M417 747Q414 747 411.50 751.50Q409 756 411 758Q449 820 469 862Q471 865 477 865Q491 865 518.50 856.50Q546 848 563.50 838.50Q581 829 571 825Q529 810 494 791.50Q459 773 419 748L417 747Z"  horiz-adv-x="716" vert-adv-y="1000"  />

      
      <glyph glyph-name="uni1EAC" unicode="&#x1EAC;" d="M717 12Q722 12 722 6Q722 0 717 0Q697 0 655 2Q611 4 592 4Q567 4 531 2Q497 0 477 0Q473 0 473 6Q473 12 477 12Q503 12 514.50 17.50Q526 23 526 37Q526 54 506 94L402 299L224 299L153 142Q140 113 140 88Q140 52 165.50 32Q191 12 234 12Q239 12 239 6Q239 0 234 0Q216 0 182 2Q144 4 116 4Q89 4 51 2Q17 0-4 0Q-8 0-8 6Q-8 12-4 12Q24 12 43 23.50Q62 35 81 64.50Q100 94 126 152L343 629Q345 632 352 632Q360 632 361 629L611 137Q646 66 669 39Q692 12 717 12M237 327L388 327L308 485L237 327M359-207Q330-207 314-191Q298-175 298-146Q298-120 314.50-104.50Q331-89 359-89Q386-89 401.50-104.50Q417-120 417-146Q417-175 402-191Q387-207 359-207M342 771Q347 776 353 776Q360 776 365 771L467 655Q468 655 468 653Q468 651 465.50 649Q463 647 462 648L354 687L245 648Q243 647 240 650.50Q237 654 239 655L342 771Z"  horiz-adv-x="716" vert-adv-y="1000"  />

      
      <glyph glyph-name="uni1EA6" unicode="&#x1EA6;" d="M717 12Q722 12 722 6Q722 0 717 0Q697 0 655 2Q611 4 592 4Q567 4 531 2Q497 0 477 0Q473 0 473 6Q473 12 477 12Q503 12 514.50 17.50Q526 23 526 37Q526 54 506 94L402 299L224 299L153 142Q140 113 140 88Q140 52 165.50 32Q191 12 234 12Q239 12 239 6Q239 0 234 0Q216 0 182 2Q144 4 116 4Q89 4 51 2Q17 0-4 0Q-8 0-8 6Q-8 12-4 12Q24 12 43 23.50Q62 35 81 64.50Q100 94 126 152L343 629Q345 632 352 632Q360 632 361 629L611 137Q646 66 669 39Q692 12 717 12M237 327L388 327L308 485L237 327M342 771Q347 776 353 776Q360 776 365 771L467 655Q468 655 468 653Q468 651 465.50 649Q463 647 462 648L354 687L245 648Q243 647 240 650.50Q237 654 239 655L342 771M507 728Q467 754 434 771.50Q401 789 359 805Q349 809 366 818.50Q383 828 410.50 836.50Q438 845 452 845Q459 845 460 842Q464 834 480.50 800Q497 766 515 738Q516 737 516 735Q516 732 513.50 729.50Q511 727 507 728Z"  horiz-adv-x="716" vert-adv-y="1000"  />

      
      <glyph glyph-name="uni1EA8" unicode="&#x1EA8;" d="M717 12Q722 12 722 6Q722 0 717 0Q697 0 655 2Q611 4 592 4Q567 4 531 2Q497 0 477 0Q473 0 473 6Q473 12 477 12Q503 12 514.50 17.50Q526 23 526 37Q526 54 506 94L402 299L224 299L153 142Q140 113 140 88Q140 52 165.50 32Q191 12 234 12Q239 12 239 6Q239 0 234 0Q216 0 182 2Q144 4 116 4Q89 4 51 2Q17 0-4 0Q-8 0-8 6Q-8 12-4 12Q24 12 43 23.50Q62 35 81 64.50Q100 94 126 152L343 629Q345 632 352 632Q360 632 361 629L611 137Q646 66 669 39Q692 12 717 12M237 327L388 327L308 485L237 327M342 771Q347 776 353 776Q360 776 365 771L467 655Q468 655 468 653Q468 651 465.50 649Q463 647 462 648L354 687L245 648Q243 647 240 650.50Q237 654 239 655L342 771M443 729Q441 739 441 743Q441 757 451 781Q460 806 460 816Q460 832 451 839.50Q442 847 430 847Q419 847 412 844L410 843Q407 843 405 846.50Q403 850 405 852Q434 870 466 870Q491 870 506.50 857.50Q522 845 522 827Q522 813 513 801.50Q504 790 486 774Q470 761 462 751Q454 741 454 729Q454 727 449 726.50Q444 726 443 729Z"  horiz-adv-x="716" vert-adv-y="1000"  />

      
      <glyph glyph-name="uni1EAA" unicode="&#x1EAA;" d="M717 12Q722 12 722 6Q722 0 717 0Q697 0 655 2Q611 4 592 4Q567 4 531 2Q497 0 477 0Q473 0 473 6Q473 12 477 12Q503 12 514.50 17.50Q526 23 526 37Q526 54 506 94L402 299L224 299L153 142Q140 113 140 88Q140 52 165.50 32Q191 12 234 12Q239 12 239 6Q239 0 234 0Q216 0 182 2Q144 4 116 4Q89 4 51 2Q17 0-4 0Q-8 0-8 6Q-8 12-4 12Q24 12 43 23.50Q62 35 81 64.50Q100 94 126 152L343 629Q345 632 352 632Q360 632 361 629L611 137Q646 66 669 39Q692 12 717 12M237 327L388 327L308 485L237 327M342 771Q347 776 353 776Q360 776 365 771L467 655Q468 655 468 653Q468 651 465.50 649Q463 647 462 648L354 687L245 648Q243 647 240 650.50Q237 654 239 655L342 771M437 853Q454 853 464.50 859Q475 865 488 880L490 881Q492 881 494 878Q496 875 495 873Q468 825 451.50 809Q435 793 412 793Q393 793 356 804Q339 809 321 813Q303 817 287 817Q268 817 260 812Q252 807 236 790L235 790Q232 790 229.50 792.50Q227 795 229 797Q274 878 316 878Q327 878 363 868Q381 862 401 857.50Q421 853 437 853Z"  horiz-adv-x="716" vert-adv-y="1000"  />

      
      <glyph glyph-name="unic4" unicode="&#xc4;" d="M717 12Q722 12 722 6Q722 0 717 0Q697 0 655 2Q611 4 592 4Q567 4 531 2Q497 0 477 0Q473 0 473 6Q473 12 477 12Q503 12 514.50 17.50Q526 23 526 37Q526 54 506 94L402 299L224 299L153 142Q140 113 140 88Q140 52 165.50 32Q191 12 234 12Q239 12 239 6Q239 0 234 0Q216 0 182 2Q144 4 116 4Q89 4 51 2Q17 0-4 0Q-8 0-8 6Q-8 12-4 12Q24 12 43 23.50Q62 35 81 64.50Q100 94 126 152L343 629Q345 632 352 632Q360 632 361 629L611 137Q646 66 669 39Q692 12 717 12M237 327L388 327L308 485L237 327M268 703Q242 703 227.50 717.50Q213 732 213 758Q213 782 228 796Q243 810 268 810Q293 810 306.50 796Q320 782 320 758Q320 732 306.50 717.50Q293 703 268 703M442 703Q416 703 402 717.50Q388 732 388 758Q388 782 402.50 795.50Q417 809 442 809Q467 809 480.50 795.50Q494 782 494 758Q494 732 480.50 717.50Q467 703 442 703Z"  horiz-adv-x="716" vert-adv-y="1000"  />

      
      <glyph glyph-name="uni1EA0" unicode="&#x1EA0;" d="M717 12Q722 12 722 6Q722 0 717 0Q697 0 655 2Q611 4 592 4Q567 4 531 2Q497 0 477 0Q473 0 473 6Q473 12 477 12Q503 12 514.50 17.50Q526 23 526 37Q526 54 506 94L402 299L224 299L153 142Q140 113 140 88Q140 52 165.50 32Q191 12 234 12Q239 12 239 6Q239 0 234 0Q216 0 182 2Q144 4 116 4Q89 4 51 2Q17 0-4 0Q-8 0-8 6Q-8 12-4 12Q24 12 43 23.50Q62 35 81 64.50Q100 94 126 152L343 629Q345 632 352 632Q360 632 361 629L611 137Q646 66 669 39Q692 12 717 12M237 327L388 327L308 485L237 327M359-207Q330-207 314-191Q298-175 298-146Q298-120 314.50-104.50Q331-89 359-89Q386-89 401.50-104.50Q417-120 417-146Q417-175 402-191Q387-207 359-207Z"  horiz-adv-x="716" vert-adv-y="1000"  />

      
      <glyph glyph-name="unic0" unicode="&#xc0;" d="M717 12Q722 12 722 6Q722 0 717 0Q697 0 655 2Q611 4 592 4Q567 4 531 2Q497 0 477 0Q473 0 473 6Q473 12 477 12Q503 12 514.50 17.50Q526 23 526 37Q526 54 506 94L402 299L224 299L153 142Q140 113 140 88Q140 52 165.50 32Q191 12 234 12Q239 12 239 6Q239 0 234 0Q216 0 182 2Q144 4 116 4Q89 4 51 2Q17 0-4 0Q-8 0-8 6Q-8 12-4 12Q24 12 43 23.50Q62 35 81 64.50Q100 94 126 152L343 629Q345 632 352 632Q360 632 361 629L611 137Q646 66 669 39Q692 12 717 12M237 327L388 327L308 485L237 327M454 679Q342 729 232 756Q220 758 243.50 769.50Q267 781 297.50 789.50Q328 798 333 793L380 753Q424 715 458 689Q461 688 461 685Q461 682 459 680Q457 678 454 679Z"  horiz-adv-x="716" vert-adv-y="1000"  />

      
      <glyph glyph-name="uni1EA2" unicode="&#x1EA2;" d="M717 12Q722 12 722 6Q722 0 717 0Q697 0 655 2Q611 4 592 4Q567 4 531 2Q497 0 477 0Q473 0 473 6Q473 12 477 12Q503 12 514.50 17.50Q526 23 526 37Q526 54 506 94L402 299L224 299L153 142Q140 113 140 88Q140 52 165.50 32Q191 12 234 12Q239 12 239 6Q239 0 234 0Q216 0 182 2Q144 4 116 4Q89 4 51 2Q17 0-4 0Q-8 0-8 6Q-8 12-4 12Q24 12 43 23.50Q62 35 81 64.50Q100 94 126 152L343 629Q345 632 352 632Q360 632 361 629L611 137Q646 66 669 39Q692 12 717 12M237 327L388 327L308 485L237 327M355 651Q355 649 349.50 649Q344 649 343 651Q341 667 341 673Q341 701 356 735Q357 738 363 754.50Q369 771 369 789Q369 825 341 825Q327 825 305 815L303 815Q300 815 297.50 818Q295 821 298 823Q332 851 380 851Q412 851 431 837Q450 823 450 799Q450 778 437 760.50Q424 743 398 717Q375 693 365 679.50Q355 666 355 651Z"  horiz-adv-x="716" vert-adv-y="1000"  />

      
      <glyph glyph-name="uni0100" unicode="&#x0100;" d="M717 12Q722 12 722 6Q722 0 717 0Q697 0 655 2Q611 4 592 4Q567 4 531 2Q497 0 477 0Q473 0 473 6Q473 12 477 12Q503 12 514.50 17.50Q526 23 526 37Q526 54 506 94L402 299L224 299L153 142Q140 113 140 88Q140 52 165.50 32Q191 12 234 12Q239 12 239 6Q239 0 234 0Q216 0 182 2Q144 4 116 4Q89 4 51 2Q17 0-4 0Q-8 0-8 6Q-8 12-4 12Q24 12 43 23.50Q62 35 81 64.50Q100 94 126 152L343 629Q345 632 352 632Q360 632 361 629L611 137Q646 66 669 39Q692 12 717 12M237 327L388 327L308 485L237 327M228 713Q224 713 221 718.50Q218 724 218 732Q218 739 221 744.50Q224 750 228 750L479 750Q484 750 487 744.50Q490 739 490 732Q490 724 487 718.50Q484 713 479 713L228 713Z"  horiz-adv-x="716" vert-adv-y="1000"  />

      
      <glyph glyph-name="uni0104" unicode="&#x0104;" d="M717 9Q722 9 722 3.50Q722-2 717-2Q692-2 654 0L605 1Q555 1 529.50-29.50Q504-60 504-115Q504-170 528.50-201.50Q553-233 589-233Q612-233 632-222L633-222Q636-222 638.50-225Q641-228 639-230Q612-254 585-264.50Q558-275 527-275Q472-275 440.50-245Q409-215 409-168Q409-133 425-109.50Q441-86 471-58Q498-32 511-13.50Q524 5 524 31Q524 59 506 94L402 299L225 299L153 142Q140 113 140 88Q140 52 165.50 32Q191 12 234 12Q239 12 239 6Q239 0 234 0Q216 0 182 2Q144 4 116 4Q89 4 51 2Q17 0-4 0Q-8 0-8 6Q-8 12-4 12Q24 12 43.50 23.50Q63 35 81.50 64.50Q100 94 125 152L343 629Q345 632 352 632Q360 632 361 629L611 137Q645 69 669.50 39Q694 9 717 9M237 327L388 327L309 484L237 327Z"  horiz-adv-x="716" vert-adv-y="1000"  />

      
      <glyph glyph-name="unic5" unicode="&#xc5;" d="M717 12Q722 12 722 6Q722 0 717 0Q697 0 655 2Q611 4 592 4Q567 4 531 2Q497 0 477 0Q473 0 473 6Q473 12 477 12Q503 12 514.50 17.50Q526 23 526 37Q526 54 506 94L402 299L224 299L153 142Q140 113 140 88Q140 52 165.50 32Q191 12 234 12Q239 12 239 6Q239 0 234 0Q216 0 182 2Q144 4 116 4Q89 4 51 2Q17 0-4 0Q-8 0-8 6Q-8 12-4 12Q24 12 43 23.50Q62 35 81 64.50Q100 94 126 152L343 629Q345 632 352 632Q360 632 361 629L611 137Q646 66 669 39Q692 12 717 12M237 327L388 327L308 485L237 327M346 660Q297 660 268 683.50Q239 707 239 739Q239 775 274.50 795.50Q310 816 355 816Q399 816 430 793Q461 770 461 737Q461 702 426 681Q391 660 346 660M361 674Q388 674 388 719Q388 753 372.50 777.50Q357 802 335 802Q312 802 312 759Q312 726 325 700Q338 674 361 674Z"  horiz-adv-x="716" vert-adv-y="1000"  />

      
      <glyph glyph-name="uni01FA" unicode="&#x01FA;" d="M717 12Q722 12 722 6Q722 0 717 0Q697 0 655 2Q611 4 592 4Q567 4 531 2Q497 0 477 0Q473 0 473 6Q473 12 477 12Q503 12 514.50 17.50Q526 23 526 37Q526 54 506 94L402 299L224 299L153 142Q140 113 140 88Q140 52 165.50 32Q191 12 234 12Q239 12 239 6Q239 0 234 0Q216 0 182 2Q144 4 116 4Q89 4 51 2Q17 0-4 0Q-8 0-8 6Q-8 12-4 12Q24 12 43 23.50Q62 35 81 64.50Q100 94 126 152L343 629Q345 632 352 632Q360 632 361 629L611 137Q646 66 669 39Q692 12 717 12M237 327L388 327L308 485L237 327M261 823Q258 823 256.50 827.50Q255 832 258 833L389 902Q394 905 416.50 893Q439 881 457 867Q475 853 468 853Q379 843 263 823L261 823M347 675Q305 675 279 695Q253 715 253 743Q253 773 285 791Q317 809 357 809Q400 809 431.50 789Q463 769 463 741Q463 711 428 693Q393 675 347 675M363 689Q389 689 389 723Q389 753 375.50 774Q362 795 340 795Q328 795 320.50 786.50Q313 778 313 763Q313 735 326.50 712Q340 689 363 689Z"  horiz-adv-x="716" vert-adv-y="1000"  />

      
      <glyph glyph-name="unic3" unicode="&#xc3;" d="M717 12Q722 12 722 6Q722 0 717 0Q697 0 655 2Q611 4 592 4Q567 4 531 2Q497 0 477 0Q473 0 473 6Q473 12 477 12Q503 12 514.50 17.50Q526 23 526 37Q526 54 506 94L402 299L224 299L153 142Q140 113 140 88Q140 52 165.50 32Q191 12 234 12Q239 12 239 6Q239 0 234 0Q216 0 182 2Q144 4 116 4Q89 4 51 2Q17 0-4 0Q-8 0-8 6Q-8 12-4 12Q24 12 43 23.50Q62 35 81 64.50Q100 94 126 152L343 629Q345 632 352 632Q360 632 361 629L611 137Q646 66 669 39Q692 12 717 12M237 327L388 327L308 485L237 327M435 761Q452 761 462.50 767Q473 773 486 788L487 788Q490 788 492.50 785.50Q495 783 493 781Q467 733 449.50 716.50Q432 700 410 700Q391 700 354 711Q350 712 327.50 718Q305 724 285 724Q266 724 258 719Q250 714 234 697L233 697Q230 697 227.50 699.50Q225 702 226 704Q245 738 266.50 761.50Q288 785 314 785Q324 785 360 775Q366 774 390 767.50Q414 761 435 761Z"  horiz-adv-x="716" vert-adv-y="1000"  />

      
      <glyph glyph-name="unic6" unicode="&#xc6;" d="M832 159Q832 161 835 161Q838 161 840.50 160Q843 159 843 157Q834 69 834 15Q834 7 830.50 3.50Q827 0 819 0L382 0Q380 0 380 6Q380 12 382 12Q414 12 428.50 17Q443 22 448.50 36.50Q454 51 454 81L454 311L304 311L194 138Q168 98 168 66Q168 40 187 26Q206 12 242 12Q247 12 247 6Q247 0 242 0Q221 0 181 2Q135 4 101 4Q76 4 42 2Q12 0-7 0Q-12 0-12 6Q-12 12-7 12Q35 12 69.50 39Q104 66 147 132L435 574Q448 592 448 599Q448 608 431.50 610.50Q415 613 371 613Q368 613 368 619Q368 625 371 625L801 625Q811 625 811 616L813 483Q813 481 807.50 480Q802 479 801 482Q795 505 774 532Q753 559 722.50 577.50Q692 596 658 596L616 596Q587 596 573 583Q559 570 559 543L559 339L642 339Q700 339 730.50 359Q761 379 761 415Q761 418 767 418Q773 418 773 415L772 325Q772 293 773 277L774 223Q774 221 768.50 221Q763 221 763 223Q763 264 731.50 287.50Q700 311 641 311L559 311L559 85Q559 56 570 42Q581 28 605 28L649 28Q686 28 724.50 46Q763 64 792 94.50Q821 125 832 159M322 339L454 339L454 547L322 339Z"  horiz-adv-x="888" vert-adv-y="1000"  />

      
      <glyph glyph-name="uni01FC" unicode="&#x01FC;" d="M832 159Q832 161 835 161Q838 161 840.50 160Q843 159 843 157Q834 69 834 15Q834 7 830.50 3.50Q827 0 819 0L382 0Q380 0 380 6Q380 12 382 12Q414 12 428.50 17Q443 22 448.50 36.50Q454 51 454 81L454 311L304 311L194 138Q168 98 168 66Q168 40 187 26Q206 12 242 12Q247 12 247 6Q247 0 242 0Q221 0 181 2Q135 4 101 4Q76 4 42 2Q12 0-7 0Q-12 0-12 6Q-12 12-7 12Q35 12 69.50 39Q104 66 147 132L435 574Q448 592 448 599Q448 608 431.50 610.50Q415 613 371 613Q368 613 368 619Q368 625 371 625L801 625Q811 625 811 616L813 483Q813 481 807.50 480Q802 479 801 482Q795 505 774 532Q753 559 722.50 577.50Q692 596 658 596L616 596Q587 596 573 583Q559 570 559 543L559 339L642 339Q700 339 730.50 359Q761 379 761 415Q761 418 767 418Q773 418 773 415L772 325Q772 293 773 277L774 223Q774 221 768.50 221Q763 221 763 223Q763 264 731.50 287.50Q700 311 641 311L559 311L559 85Q559 56 570 42Q581 28 605 28L649 28Q686 28 724.50 46Q763 64 792 94.50Q821 125 832 159M322 339L454 339L454 547L322 339M480 678Q476 678 475 682.50Q474 687 477 689Q506 710 558 755Q588 781 603 793Q608 798 638.50 789.50Q669 781 692.50 769.50Q716 758 704 756Q642 741 590.50 722.50Q539 704 482 679L480 678Z"  horiz-adv-x="888" vert-adv-y="1000"  />

      
      <glyph glyph-name="uni01E2" unicode="&#x01E2;" d="M832 159Q832 161 835 161Q838 161 840.50 160Q843 159 843 157Q834 69 834 15Q834 7 830.50 3.50Q827 0 819 0L382 0Q380 0 380 6Q380 12 382 12Q414 12 428.50 17Q443 22 448.50 36.50Q454 51 454 81L454 311L304 311L194 138Q168 98 168 66Q168 40 187 26Q206 12 242 12Q247 12 247 6Q247 0 242 0Q221 0 181 2Q135 4 101 4Q76 4 42 2Q12 0-7 0Q-12 0-12 6Q-12 12-7 12Q35 12 69.50 39Q104 66 147 132L435 574Q448 592 448 599Q448 608 431.50 610.50Q415 613 371 613Q368 613 368 619Q368 625 371 625L801 625Q811 625 811 616L813 483Q813 481 807.50 480Q802 479 801 482Q795 505 774 532Q753 559 722.50 577.50Q692 596 658 596L616 596Q587 596 573 583Q559 570 559 543L559 339L642 339Q700 339 730.50 359Q761 379 761 415Q761 418 767 418Q773 418 773 415L772 325Q772 293 773 277L774 223Q774 221 768.50 221Q763 221 763 223Q763 264 731.50 287.50Q700 311 641 311L559 311L559 85Q559 56 570 42Q581 28 605 28L649 28Q686 28 724.50 46Q763 64 792 94.50Q821 125 832 159M322 339L454 339L454 547L322 339M453 713Q449 713 446 718.50Q443 724 443 732Q443 739 446 744.50Q449 750 453 750L704 750Q709 750 712 744.50Q715 739 715 732Q715 724 712 718.50Q709 713 704 713L453 713Z"  horiz-adv-x="888" vert-adv-y="1000"  />

      
      <glyph glyph-name="uni42" unicode="&#x42;" d="M360 351Q444 341 493.50 295Q543 249 543 181Q543 129 513 87Q483 45 430 20.50Q377-4 312-4Q284-4 248-1Q234 0 213.50 1Q193 2 168 2L95 1Q75 0 41 0Q38 0 38 6Q38 12 41 12Q70 12 85 17.50Q100 23 106.50 37.50Q113 52 113 81L113 544Q113 586 99 599.50Q85 613 42 613Q40 613 40 619Q40 625 42 625L95 624Q141 622 168 622Q196 622 226 625Q236 626 256 627Q276 628 291 628Q382 628 432 595Q482 562 482 499Q482 451 450.50 412Q419 373 360 351M276 606Q247 606 236 592.50Q225 579 225 542L225 352L265 351Q317 351 345 390Q373 429 373 490Q373 547 348 576.50Q323 606 276 606M295 21Q426 21 426 157Q426 234 389 279Q352 324 277 324Q248 324 225 322L225 81Q225 48 238 34.50Q251 21 295 21Z"  horiz-adv-x="595" vert-adv-y="1000"  />

      
      <glyph glyph-name="uni43" unicode="&#x43;" d="M421 636Q465 636 513 628.50Q561 621 588 609Q597 606 599.50 601.50Q602 597 604 586L616 447Q616 444 611 443Q606 442 605 446Q571 525 514 568Q457 611 382 611Q283 611 229 538Q175 465 175 342Q175 250 204.50 174Q234 98 287.50 53.50Q341 9 409 9Q473 9 523.50 51.50Q574 94 614 181Q615 185 620.50 184Q626 183 626 180L611 44Q609 32 606.50 28.50Q604 25 595 21Q506-12 412-12Q290-12 208 36.50Q126 85 87.50 159.50Q49 234 49 315Q49 410 100.50 483Q152 556 237.50 596Q323 636 421 636Z"  horiz-adv-x="669" vert-adv-y="1000"  />

      
      <glyph glyph-name="uni0106" unicode="&#x0106;" d="M421 636Q465 636 513 628.50Q561 621 588 609Q597 606 599.50 601.50Q602 597 604 586L616 447Q616 444 611 443Q606 442 605 446Q571 525 514 568Q457 611 382 611Q283 611 229 538Q175 465 175 342Q175 250 204.50 174Q234 98 287.50 53.50Q341 9 409 9Q473 9 523.50 51.50Q574 94 614 181Q615 185 620.50 184Q626 183 626 180L611 44Q609 32 606.50 28.50Q604 25 595 21Q506-12 412-12Q290-12 208 36.50Q126 85 87.50 159.50Q49 234 49 315Q49 410 100.50 483Q152 556 237.50 596Q323 636 421 636M280 678Q276 678 275 682.50Q274 687 277 689Q306 710 358 755Q388 781 403 793Q408 798 438.50 789.50Q469 781 492.50 769.50Q516 758 504 756Q442 741 390.50 722.50Q339 704 282 679L280 678Z"  horiz-adv-x="669" vert-adv-y="1000"  />

      
      <glyph glyph-name="uni010C" unicode="&#x010C;" d="M421 636Q465 636 513 628.50Q561 621 588 609Q597 606 599.50 601.50Q602 597 604 586L616 447Q616 444 611 443Q606 442 605 446Q571 525 514 568Q457 611 382 611Q283 611 229 538Q175 465 175 342Q175 250 204.50 174Q234 98 287.50 53.50Q341 9 409 9Q473 9 523.50 51.50Q574 94 614 181Q615 185 620.50 184Q626 183 626 180L611 44Q609 32 606.50 28.50Q604 25 595 21Q506-12 412-12Q290-12 208 36.50Q126 85 87.50 159.50Q49 234 49 315Q49 410 100.50 483Q152 556 237.50 596Q323 636 421 636M264 802L264 804Q264 806 266.50 808Q269 810 270 809L379 771L487 811L488 811Q491 811 492.50 808.50Q494 806 492 804L390 687Q386 683 379 683Q371 683 367 687L264 802Z"  horiz-adv-x="669" vert-adv-y="1000"  />

      
      <glyph glyph-name="unic7" unicode="&#xc7;" d="M614 181Q615 185 620.50 184Q626 183 626 180L611 44Q609 32 606.50 28.50Q604 25 595 21Q506-12 412-12L395-12Q393-26 393-33Q393-52 402.50-66Q412-80 433-92Q459-108 473.50-125.50Q488-143 488-170Q488-212 457.50-243.50Q427-275 366-275Q291-275 291-227Q291-212 303-200Q315-188 331-188Q350-188 358-196.50Q366-205 371-221Q376-236 382.50-243.50Q389-251 406-251Q428-251 428-227Q428-201 409.50-180Q391-159 345-133Q336-130 336-121Q336-114 340-105Q358-61 376-11Q266-3 192.50 46Q119 95 84 167Q49 239 49 315Q49 410 100.50 483Q152 556 237.50 596Q323 636 421 636Q465 636 513 628.50Q561 621 588 609Q597 606 599.50 601.50Q602 597 604 586L616 447Q616 444 611 443Q606 442 605 446Q571 525 514 568Q457 611 382 611Q283 611 229 538Q175 465 175 342Q175 250 204.50 174Q234 98 287.50 53.50Q341 9 409 9Q473 9 523.50 51.50Q574 94 614 181Z"  horiz-adv-x="669" vert-adv-y="1000"  />

      
      <glyph glyph-name="uni0108" unicode="&#x0108;" d="M421 636Q465 636 513 628.50Q561 621 588 609Q597 606 599.50 601.50Q602 597 604 586L616 447Q616 444 611 443Q606 442 605 446Q571 525 514 568Q457 611 382 611Q283 611 229 538Q175 465 175 342Q175 250 204.50 174Q234 98 287.50 53.50Q341 9 409 9Q473 9 523.50 51.50Q574 94 614 181Q615 185 620.50 184Q626 183 626 180L611 44Q609 32 606.50 28.50Q604 25 595 21Q506-12 412-12Q290-12 208 36.50Q126 85 87.50 159.50Q49 234 49 315Q49 410 100.50 483Q152 556 237.50 596Q323 636 421 636M368 818Q373 823 380 823Q386 823 391 818L493 702Q494 702 494 700Q494 698 491.50 696Q489 694 488 695L380 734L271 695Q269 694 266 697.50Q263 701 265 702L368 818Z"  horiz-adv-x="669" vert-adv-y="1000"  />

      
      <glyph glyph-name="uni010A" unicode="&#x010A;" d="M421 636Q465 636 513 628.50Q561 621 588 609Q597 606 599.50 601.50Q602 597 604 586L616 447Q616 444 611 443Q606 442 605 446Q571 525 514 568Q457 611 382 611Q283 611 229 538Q175 465 175 342Q175 250 204.50 174Q234 98 287.50 53.50Q341 9 409 9Q473 9 523.50 51.50Q574 94 614 181Q615 185 620.50 184Q626 183 626 180L611 44Q609 32 606.50 28.50Q604 25 595 21Q506-12 412-12Q290-12 208 36.50Q126 85 87.50 159.50Q49 234 49 315Q49 410 100.50 483Q152 556 237.50 596Q323 636 421 636M380 713Q351 713 335 729.50Q319 746 319 774Q319 800 335.50 816Q352 832 380 832Q407 832 422.50 816.50Q438 801 438 774Q438 745 423 729Q408 713 380 713Z"  horiz-adv-x="669" vert-adv-y="1000"  />

      
      <glyph glyph-name="uni44" unicode="&#x44;" d="M326-4Q294-4 250-1Q234 0 210.50 1Q187 2 158 2L84 1Q64 0 30 0Q28 0 28 6Q28 12 30 12Q62 12 77 17Q92 22 97.50 36.50Q103 51 103 81L103 544Q103 574 97.50 588Q92 602 77.50 607.50Q63 613 32 613Q29 613 29 619Q29 625 32 625L85 624Q131 622 158 622Q199 622 242 625Q294 627 312 627Q413 627 491.50 587Q570 547 613 478Q656 409 656 323Q656 226 611.50 151.50Q567 77 491.50 36.50Q416-4 326-4M316 19Q380 19 429 51.50Q478 84 505.50 148Q533 212 533 301Q533 386 507 455.50Q481 525 433 565Q385 605 322 605Q260 605 237 593Q214 581 214 542L214 92Q214 52 235 35.50Q256 19 316 19Z"  horiz-adv-x="705" vert-adv-y="1000"  />

      
      <glyph glyph-name="unid0" unicode="&#xd0;" d="M312 627Q413 627 491.50 587Q570 547 613 478Q656 409 656 323Q656 226 611.50 151.50Q567 77 491.50 36.50Q416-4 326-4Q294-4 250-1Q234 0 210.50 1Q187 2 158 2L84 1Q64 0 30 0Q28 0 28 6Q28 12 30 12Q62 12 77 17Q92 22 97.50 36.50Q103 51 103 81L103 297L53 297Q49 297 49 311Q49 325 53 325L103 325L103 544Q103 574 97.50 588Q92 602 77.50 607.50Q63 613 32 613Q29 613 29 619Q29 625 32 625L85 624Q131 622 158 622Q199 622 242 625Q294 627 312 627M316 19Q380 19 429 51.50Q478 84 505.50 148Q533 212 533 301Q533 386 507 455.50Q481 525 433 565Q385 605 322 605Q260 605 237 593Q214 581 214 542L214 325L350 325Q352 325 353.50 320.50Q355 316 355 311Q355 306 353.50 301.50Q352 297 350 297L214 297L214 92Q214 52 235 35.50Q256 19 316 19Z"  horiz-adv-x="705" vert-adv-y="1000"  />

      
      <glyph glyph-name="uni010E" unicode="&#x010E;" d="M326-4Q294-4 250-1Q234 0 210.50 1Q187 2 158 2L84 1Q64 0 30 0Q28 0 28 6Q28 12 30 12Q62 12 77 17Q92 22 97.50 36.50Q103 51 103 81L103 544Q103 574 97.50 588Q92 602 77.50 607.50Q63 613 32 613Q29 613 29 619Q29 625 32 625L85 624Q131 622 158 622Q199 622 242 625Q294 627 312 627Q413 627 491.50 587Q570 547 613 478Q656 409 656 323Q656 226 611.50 151.50Q567 77 491.50 36.50Q416-4 326-4M316 19Q380 19 429 51.50Q478 84 505.50 148Q533 212 533 301Q533 386 507 455.50Q481 525 433 565Q385 605 322 605Q260 605 237 593Q214 581 214 542L214 92Q214 52 235 35.50Q256 19 316 19M208 802L208 804Q208 806 210.50 808Q213 810 214 809L323 771L431 811L432 811Q435 811 436.50 808.50Q438 806 436 804L334 687Q330 683 323 683Q315 683 311 687L208 802Z"  horiz-adv-x="705" vert-adv-y="1000"  />

      
      <glyph glyph-name="uni0110" unicode="&#x0110;" d="M312 627Q413 627 491.50 587Q570 547 613 478Q656 409 656 323Q656 226 611.50 151.50Q567 77 491.50 36.50Q416-4 326-4Q294-4 250-1Q234 0 210.50 1Q187 2 158 2L84 1Q64 0 30 0Q28 0 28 6Q28 12 30 12Q62 12 77 17Q92 22 97.50 36.50Q103 51 103 81L103 297L53 297Q49 297 49 311Q49 325 53 325L103 325L103 544Q103 574 97.50 588Q92 602 77.50 607.50Q63 613 32 613Q29 613 29 619Q29 625 32 625L85 624Q131 622 158 622Q199 622 242 625Q294 627 312 627M316 19Q380 19 429 51.50Q478 84 505.50 148Q533 212 533 301Q533 386 507 455.50Q481 525 433 565Q385 605 322 605Q260 605 237 593Q214 581 214 542L214 325L350 325Q352 325 353.50 320.50Q355 316 355 311Q355 306 353.50 301.50Q352 297 350 297L214 297L214 92Q214 52 235 35.50Q256 19 316 19Z"  horiz-adv-x="705" vert-adv-y="1000"  />

      
      <glyph glyph-name="uni1E0C" unicode="&#x1E0C;" d="M326-4Q294-4 250-1Q234 0 210.50 1Q187 2 158 2L84 1Q64 0 30 0Q28 0 28 6Q28 12 30 12Q62 12 77 17Q92 22 97.50 36.50Q103 51 103 81L103 544Q103 574 97.50 588Q92 602 77.50 607.50Q63 613 32 613Q29 613 29 619Q29 625 32 625L85 624Q131 622 158 622Q199 622 242 625Q294 627 312 627Q413 627 491.50 587Q570 547 613 478Q656 409 656 323Q656 226 611.50 151.50Q567 77 491.50 36.50Q416-4 326-4M316 19Q380 19 429 51.50Q478 84 505.50 148Q533 212 533 301Q533 386 507 455.50Q481 525 433 565Q385 605 322 605Q260 605 237 593Q214 581 214 542L214 92Q214 52 235 35.50Q256 19 316 19M337-207Q308-207 292-191Q276-175 276-146Q276-120 292.50-104.50Q309-89 337-89Q364-89 379.50-104.50Q395-120 395-146Q395-175 380-191Q365-207 337-207Z"  horiz-adv-x="705" vert-adv-y="1000"  />

      
      <glyph glyph-name="uni1E0E" unicode="&#x1E0E;" d="M326-4Q294-4 250-1Q234 0 210.50 1Q187 2 158 2L84 1Q64 0 30 0Q28 0 28 6Q28 12 30 12Q62 12 77 17Q92 22 97.50 36.50Q103 51 103 81L103 544Q103 574 97.50 588Q92 602 77.50 607.50Q63 613 32 613Q29 613 29 619Q29 625 32 625L85 624Q131 622 158 622Q199 622 242 625Q294 627 312 627Q413 627 491.50 587Q570 547 613 478Q656 409 656 323Q656 226 611.50 151.50Q567 77 491.50 36.50Q416-4 326-4M316 19Q380 19 429 51.50Q478 84 505.50 148Q533 212 533 301Q533 386 507 455.50Q481 525 433 565Q385 605 322 605Q260 605 237 593Q214 581 214 542L214 92Q214 52 235 35.50Q256 19 316 19M210-122Q205-122 202.50-116.50Q200-111 200-104Q200-85 210-85L461-85Q471-85 471-104Q471-111 468.50-116.50Q466-122 461-122L210-122Z"  horiz-adv-x="705" vert-adv-y="1000"  />

      
      <glyph glyph-name="uni45" unicode="&#x45;" d="M496 159Q496 161 500 161Q503 161 505.50 159.50Q508 158 508 157Q498 79 498 15Q498 7 495 3.50Q492 0 483 0L41 0Q38 0 38 6Q38 12 41 12Q73 12 87.50 17Q102 22 107 36.50Q112 51 112 81L112 544Q112 574 107 588Q102 602 87 607.50Q72 613 41 613Q38 613 38 619Q38 625 41 625L465 625Q475 625 475 616L477 483Q477 481 471.50 480Q466 479 465 482Q449 540 411 568Q373 596 311 596L281 596Q251 596 237 583Q223 570 223 543L223 339L306 339Q364 339 395 359Q426 379 426 415Q426 418 431.50 418Q437 418 437 415L436 325L437 277Q439 243 439 223Q439 221 433 221Q427 221 427 223Q427 264 395.50 287.50Q364 311 305 311L223 311L223 85Q223 56 234 42Q245 28 269 28L302 28Q380 28 427 60Q474 92 496 159Z"  horiz-adv-x="552" vert-adv-y="1000"  />

      
      <glyph glyph-name="unic9" unicode="&#xc9;" d="M496 159Q496 161 500 161Q503 161 505.50 159.50Q508 158 508 157Q498 79 498 15Q498 7 495 3.50Q492 0 483 0L41 0Q38 0 38 6Q38 12 41 12Q73 12 87.50 17Q102 22 107 36.50Q112 51 112 81L112 544Q112 574 107 588Q102 602 87 607.50Q72 613 41 613Q38 613 38 619Q38 625 41 625L465 625Q475 625 475 616L477 483Q477 481 471.50 480Q466 479 465 482Q449 540 411 568Q373 596 311 596L281 596Q251 596 237 583Q223 570 223 543L223 339L306 339Q364 339 395 359Q426 379 426 415Q426 418 431.50 418Q437 418 437 415L436 325L437 277Q439 243 439 223Q439 221 433 221Q427 221 427 223Q427 264 395.50 287.50Q364 311 305 311L223 311L223 85Q223 56 234 42Q245 28 269 28L302 28Q380 28 427 60Q474 92 496 159M199 678Q195 678 194 682.50Q193 687 196 689Q225 710 277 755Q307 781 322 793Q327 798 357.50 789.50Q388 781 411.50 769.50Q435 758 423 756Q361 741 309.50 722.50Q258 704 201 679L199 678Z"  horiz-adv-x="552" vert-adv-y="1000"  />

      
      <glyph glyph-name="uni0114" unicode="&#x0114;" d="M496 159Q496 161 500 161Q503 161 505.50 159.50Q508 158 508 157Q498 79 498 15Q498 7 495 3.50Q492 0 483 0L41 0Q38 0 38 6Q38 12 41 12Q73 12 87.50 17Q102 22 107 36.50Q112 51 112 81L112 544Q112 574 107 588Q102 602 87 607.50Q72 613 41 613Q38 613 38 619Q38 625 41 625L465 625Q475 625 475 616L477 483Q477 481 471.50 480Q466 479 465 482Q449 540 411 568Q373 596 311 596L281 596Q251 596 237 583Q223 570 223 543L223 339L306 339Q364 339 395 359Q426 379 426 415Q426 418 431.50 418Q437 418 437 415L436 325L437 277Q439 243 439 223Q439 221 433 221Q427 221 427 223Q427 264 395.50 287.50Q364 311 305 311L223 311L223 85Q223 56 234 42Q245 28 269 28L302 28Q380 28 427 60Q474 92 496 159M298 690Q248 690 221.50 722.50Q195 755 195 817Q195 820 200.50 820Q206 820 206 818Q206 800 233 784Q260 768 298 768Q335 768 362 784Q389 800 389 818Q389 820 394.50 820Q400 820 400 817Q400 755 374 722.50Q348 690 298 690Z"  horiz-adv-x="552" vert-adv-y="1000"  />

      
      <glyph glyph-name="uni011A" unicode="&#x011A;" d="M496 159Q496 161 500 161Q503 161 505.50 159.50Q508 158 508 157Q498 79 498 15Q498 7 495 3.50Q492 0 483 0L41 0Q38 0 38 6Q38 12 41 12Q73 12 87.50 17Q102 22 107 36.50Q112 51 112 81L112 544Q112 574 107 588Q102 602 87 607.50Q72 613 41 613Q38 613 38 619Q38 625 41 625L465 625Q475 625 475 616L477 483Q477 481 471.50 480Q466 479 465 482Q449 540 411 568Q373 596 311 596L281 596Q251 596 237 583Q223 570 223 543L223 339L306 339Q364 339 395 359Q426 379 426 415Q426 418 431.50 418Q437 418 437 415L436 325L437 277Q439 243 439 223Q439 221 433 221Q427 221 427 223Q427 264 395.50 287.50Q364 311 305 311L223 311L223 85Q223 56 234 42Q245 28 269 28L302 28Q380 28 427 60Q474 92 496 159M183 802L183 804Q183 806 185.50 808Q188 810 189 809L298 771L406 811L407 811Q410 811 411.50 808.50Q413 806 411 804L309 687Q305 683 298 683Q290 683 286 687L183 802Z"  horiz-adv-x="552" vert-adv-y="1000"  />

      
      <glyph glyph-name="unica" unicode="&#xca;" d="M496 159Q496 161 500 161Q503 161 505.50 159.50Q508 158 508 157Q498 79 498 15Q498 7 495 3.50Q492 0 483 0L41 0Q38 0 38 6Q38 12 41 12Q73 12 87.50 17Q102 22 107 36.50Q112 51 112 81L112 544Q112 574 107 588Q102 602 87 607.50Q72 613 41 613Q38 613 38 619Q38 625 41 625L465 625Q475 625 475 616L477 483Q477 481 471.50 480Q466 479 465 482Q449 540 411 568Q373 596 311 596L281 596Q251 596 237 583Q223 570 223 543L223 339L306 339Q364 339 395 359Q426 379 426 415Q426 418 431.50 418Q437 418 437 415L436 325L437 277Q439 243 439 223Q439 221 433 221Q427 221 427 223Q427 264 395.50 287.50Q364 311 305 311L223 311L223 85Q223 56 234 42Q245 28 269 28L302 28Q380 28 427 60Q474 92 496 159M287 818Q292 823 299 823Q305 823 310 818L412 702Q413 702 413 700Q413 698 410.50 696Q408 694 407 695L299 734L190 695Q188 694 185 697.50Q182 701 184 702L287 818Z"  horiz-adv-x="552" vert-adv-y="1000"  />

      
      <glyph glyph-name="uni1EBE" unicode="&#x1EBE;" d="M496 159Q496 161 500 161Q503 161 505.50 159.50Q508 158 508 157Q498 79 498 15Q498 7 495 3.50Q492 0 483 0L41 0Q38 0 38 6Q38 12 41 12Q73 12 87.50 17Q102 22 107 36.50Q112 51 112 81L112 544Q112 574 107 588Q102 602 87 607.50Q72 613 41 613Q38 613 38 619Q38 625 41 625L465 625Q475 625 475 616L477 483Q477 481 471.50 480Q466 479 465 482Q449 540 411 568Q373 596 311 596L281 596Q251 596 237 583Q223 570 223 543L223 339L306 339Q364 339 395 359Q426 379 426 415Q426 418 431.50 418Q437 418 437 415L436 325L437 277Q439 243 439 223Q439 221 433 221Q427 221 427 223Q427 264 395.50 287.50Q364 311 305 311L223 311L223 85Q223 56 234 42Q245 28 269 28L302 28Q380 28 427 60Q474 92 496 159M286 771Q291 776 297 776Q304 776 309 771L411 655Q412 655 412 653Q412 651 409.50 649Q407 647 406 648L298 687L189 648Q187 647 184 650.50Q181 654 183 655L286 771M361 747Q358 747 355.50 751.50Q353 756 355 758Q393 820 413 862Q415 865 421 865Q435 865 462.50 856.50Q490 848 507.50 838.50Q525 829 515 825Q473 810 438 791.50Q403 773 363 748L361 747Z"  horiz-adv-x="552" vert-adv-y="1000"  />

      
      <glyph glyph-name="uni1EC6" unicode="&#x1EC6;" d="M496 159Q496 161 500 161Q503 161 505.50 159.50Q508 158 508 157Q498 79 498 15Q498 7 495 3.50Q492 0 483 0L41 0Q38 0 38 6Q38 12 41 12Q73 12 87.50 17Q102 22 107 36.50Q112 51 112 81L112 544Q112 574 107 588Q102 602 87 607.50Q72 613 41 613Q38 613 38 619Q38 625 41 625L465 625Q475 625 475 616L477 483Q477 481 471.50 480Q466 479 465 482Q449 540 411 568Q373 596 311 596L281 596Q251 596 237 583Q223 570 223 543L223 339L306 339Q364 339 395 359Q426 379 426 415Q426 418 431.50 418Q437 418 437 415L436 325L437 277Q439 243 439 223Q439 221 433 221Q427 221 427 223Q427 264 395.50 287.50Q364 311 305 311L223 311L223 85Q223 56 234 42Q245 28 269 28L302 28Q380 28 427 60Q474 92 496 159M299-207Q270-207 254-191Q238-175 238-146Q238-120 254.50-104.50Q271-89 299-89Q326-89 341.50-104.50Q357-120 357-146Q357-175 342-191Q327-207 299-207M286 771Q291 776 297 776Q304 776 309 771L411 655Q412 655 412 653Q412 651 409.50 649Q407 647 406 648L298 687L189 648Q187 647 184 650.50Q181 654 183 655L286 771Z"  horiz-adv-x="552" vert-adv-y="1000"  />

      
      <glyph glyph-name="uni1EC0" unicode="&#x1EC0;" d="M496 159Q496 161 500 161Q503 161 505.50 159.50Q508 158 508 157Q498 79 498 15Q498 7 495 3.50Q492 0 483 0L41 0Q38 0 38 6Q38 12 41 12Q73 12 87.50 17Q102 22 107 36.50Q112 51 112 81L112 544Q112 574 107 588Q102 602 87 607.50Q72 613 41 613Q38 613 38 619Q38 625 41 625L465 625Q475 625 475 616L477 483Q477 481 471.50 480Q466 479 465 482Q449 540 411 568Q373 596 311 596L281 596Q251 596 237 583Q223 570 223 543L223 339L306 339Q364 339 395 359Q426 379 426 415Q426 418 431.50 418Q437 418 437 415L436 325L437 277Q439 243 439 223Q439 221 433 221Q427 221 427 223Q427 264 395.50 287.50Q364 311 305 311L223 311L223 85Q223 56 234 42Q245 28 269 28L302 28Q380 28 427 60Q474 92 496 159M286 771Q291 776 297 776Q304 776 309 771L411 655Q412 655 412 653Q412 651 409.50 649Q407 647 406 648L298 687L189 648Q187 647 184 650.50Q181 654 183 655L286 771M451 728Q411 754 378 771.50Q345 789 303 805Q293 809 310 818.50Q327 828 354.50 836.50Q382 845 396 845Q403 845 404 842Q408 834 424.50 800Q441 766 459 738Q460 737 460 735Q460 732 457.50 729.50Q455 727 451 728Z"  horiz-adv-x="552" vert-adv-y="1000"  />

      
      <glyph glyph-name="uni1EC2" unicode="&#x1EC2;" d="M496 159Q496 161 500 161Q503 161 505.50 159.50Q508 158 508 157Q498 79 498 15Q498 7 495 3.50Q492 0 483 0L41 0Q38 0 38 6Q38 12 41 12Q73 12 87.50 17Q102 22 107 36.50Q112 51 112 81L112 544Q112 574 107 588Q102 602 87 607.50Q72 613 41 613Q38 613 38 619Q38 625 41 625L465 625Q475 625 475 616L477 483Q477 481 471.50 480Q466 479 465 482Q449 540 411 568Q373 596 311 596L281 596Q251 596 237 583Q223 570 223 543L223 339L306 339Q364 339 395 359Q426 379 426 415Q426 418 431.50 418Q437 418 437 415L436 325L437 277Q439 243 439 223Q439 221 433 221Q427 221 427 223Q427 264 395.50 287.50Q364 311 305 311L223 311L223 85Q223 56 234 42Q245 28 269 28L302 28Q380 28 427 60Q474 92 496 159M286 771Q291 776 297 776Q304 776 309 771L411 655Q412 655 412 653Q412 651 409.50 649Q407 647 406 648L298 687L189 648Q187 647 184 650.50Q181 654 183 655L286 771M387 729Q385 739 385 743Q385 757 395 781Q404 806 404 816Q404 832 395 839.50Q386 847 374 847Q363 847 356 844L354 843Q351 843 349 846.50Q347 850 349 852Q378 870 410 870Q435 870 450.50 857.50Q466 845 466 827Q466 813 457 801.50Q448 790 430 774Q414 761 406 751Q398 741 398 729Q398 727 393 726.50Q388 726 387 729Z"  horiz-adv-x="552" vert-adv-y="1000"  />

      
      <glyph glyph-name="uni1EC4" unicode="&#x1EC4;" d="M496 159Q496 161 500 161Q503 161 505.50 159.50Q508 158 508 157Q498 79 498 15Q498 7 495 3.50Q492 0 483 0L41 0Q38 0 38 6Q38 12 41 12Q73 12 87.50 17Q102 22 107 36.50Q112 51 112 81L112 544Q112 574 107 588Q102 602 87 607.50Q72 613 41 613Q38 613 38 619Q38 625 41 625L465 625Q475 625 475 616L477 483Q477 481 471.50 480Q466 479 465 482Q449 540 411 568Q373 596 311 596L281 596Q251 596 237 583Q223 570 223 543L223 339L306 339Q364 339 395 359Q426 379 426 415Q426 418 431.50 418Q437 418 437 415L436 325L437 277Q439 243 439 223Q439 221 433 221Q427 221 427 223Q427 264 395.50 287.50Q364 311 305 311L223 311L223 85Q223 56 234 42Q245 28 269 28L302 28Q380 28 427 60Q474 92 496 159M286 771Q291 776 297 776Q304 776 309 771L411 655Q412 655 412 653Q412 651 409.50 649Q407 647 406 648L298 687L189 648Q187 647 184 650.50Q181 654 183 655L286 771M381 853Q398 853 408.50 859Q419 865 432 880L434 881Q436 881 438 878Q440 875 439 873Q412 825 395.50 809Q379 793 356 793Q337 793 300 804Q283 809 265 813Q247 817 231 817Q212 817 204 812Q196 807 180 790L179 790Q176 790 173.50 792.50Q171 795 173 797Q218 878 260 878Q271 878 307 868Q325 862 345 857.50Q365 853 381 853Z"  horiz-adv-x="552" vert-adv-y="1000"  />

      
      <glyph glyph-name="unicb" unicode="&#xcb;" d="M496 159Q496 161 500 161Q503 161 505.50 159.50Q508 158 508 157Q498 79 498 15Q498 7 495 3.50Q492 0 483 0L41 0Q38 0 38 6Q38 12 41 12Q73 12 87.50 17Q102 22 107 36.50Q112 51 112 81L112 544Q112 574 107 588Q102 602 87 607.50Q72 613 41 613Q38 613 38 619Q38 625 41 625L465 625Q475 625 475 616L477 483Q477 481 471.50 480Q466 479 465 482Q449 540 411 568Q373 596 311 596L281 596Q251 596 237 583Q223 570 223 543L223 339L306 339Q364 339 395 359Q426 379 426 415Q426 418 431.50 418Q437 418 437 415L436 325L437 277Q439 243 439 223Q439 221 433 221Q427 221 427 223Q427 264 395.50 287.50Q364 311 305 311L223 311L223 85Q223 56 234 42Q245 28 269 28L302 28Q380 28 427 60Q474 92 496 159M212 703Q186 703 171.50 717.50Q157 732 157 758Q157 782 172 796Q187 810 212 810Q237 810 250.50 796Q264 782 264 758Q264 732 250.50 717.50Q237 703 212 703M386 703Q360 703 346 717.50Q332 732 332 758Q332 782 346.50 795.50Q361 809 386 809Q411 809 424.50 795.50Q438 782 438 758Q438 732 424.50 717.50Q411 703 386 703Z"  horiz-adv-x="552" vert-adv-y="1000"  />

      
      <glyph glyph-name="uni0116" unicode="&#x0116;" d="M496 159Q496 161 500 161Q503 161 505.50 159.50Q508 158 508 157Q498 79 498 15Q498 7 495 3.50Q492 0 483 0L41 0Q38 0 38 6Q38 12 41 12Q73 12 87.50 17Q102 22 107 36.50Q112 51 112 81L112 544Q112 574 107 588Q102 602 87 607.50Q72 613 41 613Q38 613 38 619Q38 625 41 625L465 625Q475 625 475 616L477 483Q477 481 471.50 480Q466 479 465 482Q449 540 411 568Q373 596 311 596L281 596Q251 596 237 583Q223 570 223 543L223 339L306 339Q364 339 395 359Q426 379 426 415Q426 418 431.50 418Q437 418 437 415L436 325L437 277Q439 243 439 223Q439 221 433 221Q427 221 427 223Q427 264 395.50 287.50Q364 311 305 311L223 311L223 85Q223 56 234 42Q245 28 269 28L302 28Q380 28 427 60Q474 92 496 159M299 713Q270 713 254 729.50Q238 746 238 774Q238 800 254.50 816Q271 832 299 832Q326 832 341.50 816.50Q357 801 357 774Q357 745 342 729Q327 713 299 713Z"  horiz-adv-x="552" vert-adv-y="1000"  />

      
      <glyph glyph-name="uni1EB8" unicode="&#x1EB8;" d="M496 159Q496 161 500 161Q503 161 505.50 159.50Q508 158 508 157Q498 79 498 15Q498 7 495 3.50Q492 0 483 0L41 0Q38 0 38 6Q38 12 41 12Q73 12 87.50 17Q102 22 107 36.50Q112 51 112 81L112 544Q112 574 107 588Q102 602 87 607.50Q72 613 41 613Q38 613 38 619Q38 625 41 625L465 625Q475 625 475 616L477 483Q477 481 471.50 480Q466 479 465 482Q449 540 411 568Q373 596 311 596L281 596Q251 596 237 583Q223 570 223 543L223 339L306 339Q364 339 395 359Q426 379 426 415Q426 418 431.50 418Q437 418 437 415L436 325L437 277Q439 243 439 223Q439 221 433 221Q427 221 427 223Q427 264 395.50 287.50Q364 311 305 311L223 311L223 85Q223 56 234 42Q245 28 269 28L302 28Q380 28 427 60Q474 92 496 159M299-207Q270-207 254-191Q238-175 238-146Q238-120 254.50-104.50Q271-89 299-89Q326-89 341.50-104.50Q357-120 357-146Q357-175 342-191Q327-207 299-207Z"  horiz-adv-x="552" vert-adv-y="1000"  />

      
      <glyph glyph-name="unic8" unicode="&#xc8;" d="M496 159Q496 161 500 161Q503 161 505.50 159.50Q508 158 508 157Q498 79 498 15Q498 7 495 3.50Q492 0 483 0L41 0Q38 0 38 6Q38 12 41 12Q73 12 87.50 17Q102 22 107 36.50Q112 51 112 81L112 544Q112 574 107 588Q102 602 87 607.50Q72 613 41 613Q38 613 38 619Q38 625 41 625L465 625Q475 625 475 616L477 483Q477 481 471.50 480Q466 479 465 482Q449 540 411 568Q373 596 311 596L281 596Q251 596 237 583Q223 570 223 543L223 339L306 339Q364 339 395 359Q426 379 426 415Q426 418 431.50 418Q437 418 437 415L436 325L437 277Q439 243 439 223Q439 221 433 221Q427 221 427 223Q427 264 395.50 287.50Q364 311 305 311L223 311L223 85Q223 56 234 42Q245 28 269 28L302 28Q380 28 427 60Q474 92 496 159M398 679Q286 729 176 756Q164 758 187.50 769.50Q211 781 241.50 789.50Q272 798 277 793L324 753Q368 715 402 689Q405 688 405 685Q405 682 403 680Q401 678 398 679Z"  horiz-adv-x="552" vert-adv-y="1000"  />

      
      <glyph glyph-name="uni1EBA" unicode="&#x1EBA;" d="M496 159Q496 161 500 161Q503 161 505.50 159.50Q508 158 508 157Q498 79 498 15Q498 7 495 3.50Q492 0 483 0L41 0Q38 0 38 6Q38 12 41 12Q73 12 87.50 17Q102 22 107 36.50Q112 51 112 81L112 544Q112 574 107 588Q102 602 87 607.50Q72 613 41 613Q38 613 38 619Q38 625 41 625L465 625Q475 625 475 616L477 483Q477 481 471.50 480Q466 479 465 482Q449 540 411 568Q373 596 311 596L281 596Q251 596 237 583Q223 570 223 543L223 339L306 339Q364 339 395 359Q426 379 426 415Q426 418 431.50 418Q437 418 437 415L436 325L437 277Q439 243 439 223Q439 221 433 221Q427 221 427 223Q427 264 395.50 287.50Q364 311 305 311L223 311L223 85Q223 56 234 42Q245 28 269 28L302 28Q380 28 427 60Q474 92 496 159M299 651Q299 649 293.50 649Q288 649 287 651Q285 667 285 673Q285 701 300 735Q301 738 307 754.50Q313 771 313 789Q313 825 285 825Q271 825 249 815L247 815Q244 815 241.50 818Q239 821 242 823Q276 851 324 851Q356 851 375 837Q394 823 394 799Q394 778 381 760.50Q368 743 342 717Q319 693 309 679.50Q299 666 299 651Z"  horiz-adv-x="552" vert-adv-y="1000"  />

      
      <glyph glyph-name="uni0112" unicode="&#x0112;" d="M496 159Q496 161 500 161Q503 161 505.50 159.50Q508 158 508 157Q498 79 498 15Q498 7 495 3.50Q492 0 483 0L41 0Q38 0 38 6Q38 12 41 12Q73 12 87.50 17Q102 22 107 36.50Q112 51 112 81L112 544Q112 574 107 588Q102 602 87 607.50Q72 613 41 613Q38 613 38 619Q38 625 41 625L465 625Q475 625 475 616L477 483Q477 481 471.50 480Q466 479 465 482Q449 540 411 568Q373 596 311 596L281 596Q251 596 237 583Q223 570 223 543L223 339L306 339Q364 339 395 359Q426 379 426 415Q426 418 431.50 418Q437 418 437 415L436 325L437 277Q439 243 439 223Q439 221 433 221Q427 221 427 223Q427 264 395.50 287.50Q364 311 305 311L223 311L223 85Q223 56 234 42Q245 28 269 28L302 28Q380 28 427 60Q474 92 496 159M172 713Q168 713 165 718.50Q162 724 162 732Q162 739 165 744.50Q168 750 172 750L423 750Q428 750 431 744.50Q434 739 434 732Q434 724 431 718.50Q428 713 423 713L172 713Z"  horiz-adv-x="552" vert-adv-y="1000"  />

      
      <glyph glyph-name="uni0118" unicode="&#x0118;" d="M505-222Q508-222 510.50-225Q513-228 510-230Q455-275 398-275Q347-275 313.50-243Q280-211 280-165Q280-85 399 0L41 0Q38 0 38 6Q38 12 41 12Q73 12 87.50 17Q102 22 107 36.50Q112 51 112 81L112 544Q112 574 107 588Q102 602 87 607.50Q72 613 41 613Q38 613 38 619Q38 625 41 625L465 625Q475 625 475 616L477 483Q477 481 471.50 480Q466 479 465 482Q449 540 411 568Q373 596 311 596L281 596Q251 596 237 583Q223 570 223 543L223 339L306 339Q364 339 395 359Q426 379 426 415Q426 418 431.50 418Q437 418 437 415L436 325L437 277Q439 243 439 223Q439 221 433 221Q427 221 427 223Q427 264 395.50 287.50Q364 311 305 311L223 311L223 85Q223 56 234 42Q245 28 269 28L302 28Q380 28 427 60Q474 92 496 159Q496 161 500 161Q503 161 505.50 159.50Q508 158 508 157Q498 79 498 15Q498 7 495 3.50Q492 0 483 0L421 0Q390-31 376.50-57Q363-83 363-117Q363-169 389-201Q415-233 460-233Q471-233 484-229.50Q497-226 503-222L505-222Z"  horiz-adv-x="552" vert-adv-y="1000"  />

      
      <glyph glyph-name="uni1EBC" unicode="&#x1EBC;" d="M496 159Q496 161 500 161Q503 161 505.50 159.50Q508 158 508 157Q498 79 498 15Q498 7 495 3.50Q492 0 483 0L41 0Q38 0 38 6Q38 12 41 12Q73 12 87.50 17Q102 22 107 36.50Q112 51 112 81L112 544Q112 574 107 588Q102 602 87 607.50Q72 613 41 613Q38 613 38 619Q38 625 41 625L465 625Q475 625 475 616L477 483Q477 481 471.50 480Q466 479 465 482Q449 540 411 568Q373 596 311 596L281 596Q251 596 237 583Q223 570 223 543L223 339L306 339Q364 339 395 359Q426 379 426 415Q426 418 431.50 418Q437 418 437 415L436 325L437 277Q439 243 439 223Q439 221 433 221Q427 221 427 223Q427 264 395.50 287.50Q364 311 305 311L223 311L223 85Q223 56 234 42Q245 28 269 28L302 28Q380 28 427 60Q474 92 496 159M379 761Q396 761 406.50 767Q417 773 430 788L431 788Q434 788 436.50 785.50Q439 783 437 781Q411 733 393.50 716.50Q376 700 354 700Q335 700 298 711Q294 712 271.50 718Q249 724 229 724Q210 724 202 719Q194 714 178 697L177 697Q174 697 171.50 699.50Q169 702 170 704Q189 738 210.50 761.50Q232 785 258 785Q268 785 304 775Q310 774 334 767.50Q358 761 379 761Z"  horiz-adv-x="552" vert-adv-y="1000"  />

      
      <glyph glyph-name="uni46" unicode="&#x46;" d="M477 483Q477 481 471.50 480Q466 479 465 482Q449 540 411 568Q373 596 311 596L281 596Q251 596 237 583Q223 570 223 543L223 327L295 327Q353 327 383.50 347.50Q414 368 414 404Q414 406 420 406Q426 406 426 404L425 313Q425 281 426 265L427 212Q427 209 421 209Q415 209 415 212Q415 252 383.50 275.50Q352 299 294 299L223 299L223 85Q223 54 231 39Q239 24 261 18Q283 12 330 12Q332 12 332 6Q332 0 330 0Q289 0 266 1L164 2L89 1Q69 0 34 0Q31 0 31 6Q31 12 34 12Q69 12 85 17Q101 22 106.50 36.50Q112 51 112 81L112 544Q112 574 107 588Q102 602 87 607.50Q72 613 41 613Q38 613 38 619Q38 625 41 625L465 625Q475 625 475 616L477 483Z"  horiz-adv-x="522" vert-adv-y="1000"  />

      
      <glyph glyph-name="uni47" unicode="&#x47;" d="M409-12Q299-12 217 30Q135 72 92 144.50Q49 217 49 306Q49 402 98.50 477.50Q148 553 234.50 594.50Q321 636 428 636Q475 636 523 628.50Q571 621 600 609Q609 606 611.50 601.50Q614 597 615 586L628 447Q628 444 623 443Q618 442 616 446Q581 523 519.50 566Q458 609 379 609Q277 609 223.50 538Q170 467 170 344Q170 245 204 167.50Q238 90 298.50 47.50Q359 5 434 5Q475 5 497 14Q519 23 529 49Q539 75 539 126Q539 178 533 198.50Q527 219 507.50 226Q488 233 440 233Q434 233 434 241Q434 244 435.50 246.50Q437 249 439 249Q524 244 576 244Q627 244 682 247Q684 247 685.50 244.50Q687 242 687 240Q687 233 682 233Q664 234 657 226.50Q650 219 648 196.50Q646 174 646 116Q646 71 649.50 52Q653 33 653 28Q653 22 650.50 20Q648 18 641 16Q512-12 409-12Z"  horiz-adv-x="719" vert-adv-y="1000"  />

      
      <glyph glyph-name="uni011E" unicode="&#x011E;" d="M409-12Q299-12 217 30Q135 72 92 144.50Q49 217 49 306Q49 402 98.50 477.50Q148 553 234.50 594.50Q321 636 428 636Q475 636 523 628.50Q571 621 600 609Q609 606 611.50 601.50Q614 597 615 586L628 447Q628 444 623 443Q618 442 616 446Q581 523 519.50 566Q458 609 379 609Q277 609 223.50 538Q170 467 170 344Q170 245 204 167.50Q238 90 298.50 47.50Q359 5 434 5Q475 5 497 14Q519 23 529 49Q539 75 539 126Q539 178 533 198.50Q527 219 507.50 226Q488 233 440 233Q434 233 434 241Q434 244 435.50 246.50Q437 249 439 249Q524 244 576 244Q627 244 682 247Q684 247 685.50 244.50Q687 242 687 240Q687 233 682 233Q664 234 657 226.50Q650 219 648 196.50Q646 174 646 116Q646 71 649.50 52Q653 33 653 28Q653 22 650.50 20Q648 18 641 16Q512-12 409-12M394 690Q344 690 317.50 722.50Q291 755 291 817Q291 820 296.50 820Q302 820 302 818Q302 800 329 784Q356 768 394 768Q431 768 458 784Q485 800 485 818Q485 820 490.50 820Q496 820 496 817Q496 755 470 722.50Q444 690 394 690Z"  horiz-adv-x="719" vert-adv-y="1000"  />

      
      <glyph glyph-name="uni01E6" unicode="&#x01E6;" d="M409-12Q299-12 217 30Q135 72 92 144.50Q49 217 49 306Q49 402 98.50 477.50Q148 553 234.50 594.50Q321 636 428 636Q475 636 523 628.50Q571 621 600 609Q609 606 611.50 601.50Q614 597 615 586L628 447Q628 444 623 443Q618 442 616 446Q581 523 519.50 566Q458 609 379 609Q277 609 223.50 538Q170 467 170 344Q170 245 204 167.50Q238 90 298.50 47.50Q359 5 434 5Q475 5 497 14Q519 23 529 49Q539 75 539 126Q539 178 533 198.50Q527 219 507.50 226Q488 233 440 233Q434 233 434 241Q434 244 435.50 246.50Q437 249 439 249Q524 244 576 244Q627 244 682 247Q684 247 685.50 244.50Q687 242 687 240Q687 233 682 233Q664 234 657 226.50Q650 219 648 196.50Q646 174 646 116Q646 71 649.50 52Q653 33 653 28Q653 22 650.50 20Q648 18 641 16Q512-12 409-12M279 802L279 804Q279 806 281.50 808Q284 810 285 809L394 771L502 811L503 811Q506 811 507.50 808.50Q509 806 507 804L405 687Q401 683 394 683Q386 683 382 687L279 802Z"  horiz-adv-x="719" vert-adv-y="1000"  />

      
      <glyph glyph-name="uni011C" unicode="&#x011C;" d="M409-12Q299-12 217 30Q135 72 92 144.50Q49 217 49 306Q49 402 98.50 477.50Q148 553 234.50 594.50Q321 636 428 636Q475 636 523 628.50Q571 621 600 609Q609 606 611.50 601.50Q614 597 615 586L628 447Q628 444 623 443Q618 442 616 446Q581 523 519.50 566Q458 609 379 609Q277 609 223.50 538Q170 467 170 344Q170 245 204 167.50Q238 90 298.50 47.50Q359 5 434 5Q475 5 497 14Q519 23 529 49Q539 75 539 126Q539 178 533 198.50Q527 219 507.50 226Q488 233 440 233Q434 233 434 241Q434 244 435.50 246.50Q437 249 439 249Q524 244 576 244Q627 244 682 247Q684 247 685.50 244.50Q687 242 687 240Q687 233 682 233Q664 234 657 226.50Q650 219 648 196.50Q646 174 646 116Q646 71 649.50 52Q653 33 653 28Q653 22 650.50 20Q648 18 641 16Q512-12 409-12M383 818Q388 823 395 823Q401 823 406 818L508 702Q509 702 509 700Q509 698 506.50 696Q504 694 503 695L395 734L286 695Q284 694 281 697.50Q278 701 280 702L383 818Z"  horiz-adv-x="719" vert-adv-y="1000"  />

      
      <glyph glyph-name="uni0122" unicode="&#x0122;" d="M409-12Q299-12 217 30Q135 72 92 144.50Q49 217 49 306Q49 402 98.50 477.50Q148 553 234.50 594.50Q321 636 428 636Q475 636 523 628.50Q571 621 600 609Q609 606 611.50 601.50Q614 597 615 586L628 447Q628 444 623 443Q618 442 616 446Q581 523 519.50 566Q458 609 379 609Q277 609 223.50 538Q170 467 170 344Q170 245 204 167.50Q238 90 298.50 47.50Q359 5 434 5Q475 5 497 14Q519 23 529 49Q539 75 539 126Q539 178 533 198.50Q527 219 507.50 226Q488 233 440 233Q434 233 434 241Q434 244 435.50 246.50Q437 249 439 249Q524 244 576 244Q627 244 682 247Q684 247 685.50 244.50Q687 242 687 240Q687 233 682 233Q664 234 657 226.50Q650 219 648 196.50Q646 174 646 116Q646 71 649.50 52Q653 33 653 28Q653 22 650.50 20Q648 18 641 16Q512-12 409-12M413-69Q447-69 465-91Q483-113 483-150Q483-189 463-219Q443-249 407-275L405-276Q401-276 399-271.50Q397-267 400-265Q422-249 435-232.50Q448-216 448-198Q448-175 438-165Q428-184 397-184Q376-184 362-168Q348-152 348-127Q348-100 367-84.50Q386-69 413-69Z"  horiz-adv-x="719" vert-adv-y="1000"  />

      
      <glyph glyph-name="uni0120" unicode="&#x0120;" d="M409-12Q299-12 217 30Q135 72 92 144.50Q49 217 49 306Q49 402 98.50 477.50Q148 553 234.50 594.50Q321 636 428 636Q475 636 523 628.50Q571 621 600 609Q609 606 611.50 601.50Q614 597 615 586L628 447Q628 444 623 443Q618 442 616 446Q581 523 519.50 566Q458 609 379 609Q277 609 223.50 538Q170 467 170 344Q170 245 204 167.50Q238 90 298.50 47.50Q359 5 434 5Q475 5 497 14Q519 23 529 49Q539 75 539 126Q539 178 533 198.50Q527 219 507.50 226Q488 233 440 233Q434 233 434 241Q434 244 435.50 246.50Q437 249 439 249Q524 244 576 244Q627 244 682 247Q684 247 685.50 244.50Q687 242 687 240Q687 233 682 233Q664 234 657 226.50Q650 219 648 196.50Q646 174 646 116Q646 71 649.50 52Q653 33 653 28Q653 22 650.50 20Q648 18 641 16Q512-12 409-12M395 713Q366 713 350 729.50Q334 746 334 774Q334 800 350.50 816Q367 832 395 832Q422 832 437.50 816.50Q453 801 453 774Q453 745 438 729Q423 713 395 713Z"  horiz-adv-x="719" vert-adv-y="1000"  />

      
      <glyph glyph-name="uni1E20" unicode="&#x1E20;" d="M409-12Q299-12 217 30Q135 72 92 144.50Q49 217 49 306Q49 402 98.50 477.50Q148 553 234.50 594.50Q321 636 428 636Q475 636 523 628.50Q571 621 600 609Q609 606 611.50 601.50Q614 597 615 586L628 447Q628 444 623 443Q618 442 616 446Q581 523 519.50 566Q458 609 379 609Q277 609 223.50 538Q170 467 170 344Q170 245 204 167.50Q238 90 298.50 47.50Q359 5 434 5Q475 5 497 14Q519 23 529 49Q539 75 539 126Q539 178 533 198.50Q527 219 507.50 226Q488 233 440 233Q434 233 434 241Q434 244 435.50 246.50Q437 249 439 249Q524 244 576 244Q627 244 682 247Q684 247 685.50 244.50Q687 242 687 240Q687 233 682 233Q664 234 657 226.50Q650 219 648 196.50Q646 174 646 116Q646 71 649.50 52Q653 33 653 28Q653 22 650.50 20Q648 18 641 16Q512-12 409-12M268 713Q258 713 258 732Q258 739 260.50 744.50Q263 750 268 750L519 750Q524 750 526.50 744.50Q529 739 529 732Q529 713 519 713L268 713Z"  horiz-adv-x="719" vert-adv-y="1000"  />

      
      <glyph glyph-name="uni48" unicode="&#x48;" d="M732 12Q735 12 735 6Q735 0 732 0Q697 0 676 1L599 2L509 1Q491 0 460 0Q457 0 457 6Q457 12 460 12Q497 12 514 17Q531 22 537 36Q543 50 543 81L543 311L220 311L220 81Q220 51 226 36.50Q232 22 249 17Q266 12 303 12Q305 12 305 6Q305 0 303 0Q268 0 247 1L160 2L85 1Q65 0 30 0Q28 0 28 6Q28 12 30 12Q65 12 81 17Q97 22 103 36.50Q109 51 109 81L109 544Q109 574 103 588Q97 602 81.50 607.50Q66 613 32 613Q29 613 29 619Q29 625 32 625L86 624Q132 622 160 622Q198 622 248 624L303 625Q305 625 305 619Q305 613 303 613Q267 613 250 607Q233 601 226.50 586.50Q220 572 220 542L220 339L543 339L543 542Q543 572 537 586.50Q531 601 514 607Q497 613 460 613Q457 613 457 619Q457 625 460 625L509 624Q559 622 599 622Q626 622 676 624L732 625Q735 625 735 619Q735 613 732 613Q698 613 681.50 607.50Q665 602 659.50 588Q654 574 654 544L654 81Q654 51 659.50 36.50Q665 22 681 17Q697 12 732 12Z"  horiz-adv-x="764" vert-adv-y="1000"  />

      
      <glyph glyph-name="uni0126" unicode="&#x0126;" d="M732 12Q735 12 735 6Q735 0 732 0Q697 0 676 1L599 2L509 1Q491 0 460 0Q457 0 457 6Q457 12 460 12Q497 12 514 17Q531 22 537 36Q543 50 543 81L543 218L220 218L220 81Q220 51 226 36.50Q232 22 249 17Q266 12 303 12Q305 12 305 6Q305 0 303 0Q268 0 247 1L160 2L85 1Q65 0 30 0Q28 0 28 6Q28 12 30 12Q65 12 81 17Q97 22 103 36.50Q109 51 109 81L109 544Q109 574 103 588Q97 602 81.50 607.50Q66 613 32 613Q29 613 29 619Q29 625 32 625L86 624Q132 622 160 622Q198 622 248 624L303 625Q305 625 305 619Q305 613 303 613Q267 613 250 607Q233 601 226.50 586.50Q220 572 220 542L220 433L543 433L543 542Q543 572 537 586.50Q531 601 514 607Q497 613 460 613Q457 613 457 619Q457 625 460 625L509 624Q559 622 599 622Q626 622 676 624L732 625Q735 625 735 619Q735 613 732 613Q698 613 681.50 607.50Q665 602 659.50 588Q654 574 654 544L654 81Q654 51 659.50 36.50Q665 22 681 17Q697 12 732 12M220 246L543 246L543 405L220 405L220 246Z"  horiz-adv-x="764" vert-adv-y="1000"  />

      
      <glyph glyph-name="uni1E2A" unicode="&#x1E2A;" d="M732 12Q735 12 735 6Q735 0 732 0Q697 0 676 1L599 2L509 1Q491 0 460 0Q457 0 457 6Q457 12 460 12Q497 12 514 17Q531 22 537 36Q543 50 543 81L543 311L220 311L220 81Q220 51 226 36.50Q232 22 249 17Q266 12 303 12Q305 12 305 6Q305 0 303 0Q268 0 247 1L160 2L85 1Q65 0 30 0Q28 0 28 6Q28 12 30 12Q65 12 81 17Q97 22 103 36.50Q109 51 109 81L109 544Q109 574 103 588Q97 602 81.50 607.50Q66 613 32 613Q29 613 29 619Q29 625 32 625L86 624Q132 622 160 622Q198 622 248 624L303 625Q305 625 305 619Q305 613 303 613Q267 613 250 607Q233 601 226.50 586.50Q220 572 220 542L220 339L543 339L543 542Q543 572 537 586.50Q531 601 514 607Q497 613 460 613Q457 613 457 619Q457 625 460 625L509 624Q559 622 599 622Q626 622 676 624L732 625Q735 625 735 619Q735 613 732 613Q698 613 681.50 607.50Q665 602 659.50 588Q654 574 654 544L654 81Q654 51 659.50 36.50Q665 22 681 17Q697 12 732 12M279-77Q279-74 284.50-74Q290-74 290-76Q290-108 316.50-132Q343-156 382-156Q420-156 446.50-131.50Q473-107 473-76Q473-74 478.50-74Q484-74 484-77Q484-156 458-197.50Q432-239 382-239Q332-239 305.50-197.50Q279-156 279-77Z"  horiz-adv-x="764" vert-adv-y="1000"  />

      
      <glyph glyph-name="uni0124" unicode="&#x0124;" d="M732 12Q735 12 735 6Q735 0 732 0Q697 0 676 1L599 2L509 1Q491 0 460 0Q457 0 457 6Q457 12 460 12Q497 12 514 17Q531 22 537 36Q543 50 543 81L543 311L220 311L220 81Q220 51 226 36.50Q232 22 249 17Q266 12 303 12Q305 12 305 6Q305 0 303 0Q268 0 247 1L160 2L85 1Q65 0 30 0Q28 0 28 6Q28 12 30 12Q65 12 81 17Q97 22 103 36.50Q109 51 109 81L109 544Q109 574 103 588Q97 602 81.50 607.50Q66 613 32 613Q29 613 29 619Q29 625 32 625L86 624Q132 622 160 622Q198 622 248 624L303 625Q305 625 305 619Q305 613 303 613Q267 613 250 607Q233 601 226.50 586.50Q220 572 220 542L220 339L543 339L543 542Q543 572 537 586.50Q531 601 514 607Q497 613 460 613Q457 613 457 619Q457 625 460 625L509 624Q559 622 599 622Q626 622 676 624L732 625Q735 625 735 619Q735 613 732 613Q698 613 681.50 607.50Q665 602 659.50 588Q654 574 654 544L654 81Q654 51 659.50 36.50Q665 22 681 17Q697 12 732 12M374 818Q379 823 386 823Q392 823 397 818L499 702Q500 702 500 700Q500 698 497.50 696Q495 694 494 695L386 734L277 695Q275 694 272 697.50Q269 701 271 702L374 818Z"  horiz-adv-x="764" vert-adv-y="1000"  />

      
      <glyph glyph-name="uni1E24" unicode="&#x1E24;" d="M732 12Q735 12 735 6Q735 0 732 0Q697 0 676 1L599 2L509 1Q491 0 460 0Q457 0 457 6Q457 12 460 12Q497 12 514 17Q531 22 537 36Q543 50 543 81L543 311L220 311L220 81Q220 51 226 36.50Q232 22 249 17Q266 12 303 12Q305 12 305 6Q305 0 303 0Q268 0 247 1L160 2L85 1Q65 0 30 0Q28 0 28 6Q28 12 30 12Q65 12 81 17Q97 22 103 36.50Q109 51 109 81L109 544Q109 574 103 588Q97 602 81.50 607.50Q66 613 32 613Q29 613 29 619Q29 625 32 625L86 624Q132 622 160 622Q198 622 248 624L303 625Q305 625 305 619Q305 613 303 613Q267 613 250 607Q233 601 226.50 586.50Q220 572 220 542L220 339L543 339L543 542Q543 572 537 586.50Q531 601 514 607Q497 613 460 613Q457 613 457 619Q457 625 460 625L509 624Q559 622 599 622Q626 622 676 624L732 625Q735 625 735 619Q735 613 732 613Q698 613 681.50 607.50Q665 602 659.50 588Q654 574 654 544L654 81Q654 51 659.50 36.50Q665 22 681 17Q697 12 732 12M383-207Q354-207 338-191Q322-175 322-146Q322-120 338.50-104.50Q355-89 383-89Q410-89 425.50-104.50Q441-120 441-146Q441-175 426-191Q411-207 383-207Z"  horiz-adv-x="764" vert-adv-y="1000"  />

      
      <glyph glyph-name="uni49" unicode="&#x49;" d="M227 81Q227 50 232 36Q237 22 251.50 17Q266 12 298 12Q301 12 301 6Q301 0 298 0Q265 0 246 1L170 2L96 1Q76 0 42 0Q40 0 40 6Q40 12 42 12Q74 12 89 17Q104 22 109.50 36.50Q115 51 115 81L115 544Q115 574 109.50 588Q104 602 89 607.50Q74 613 42 613Q40 613 40 619Q40 625 42 625L96 624Q142 622 170 622Q201 622 247 624L298 625Q301 625 301 619Q301 613 298 613Q267 613 252 607Q237 601 232 586.50Q227 572 227 542L227 81Z"  horiz-adv-x="342" vert-adv-y="1000"  />

      
      <glyph glyph-name="uni0132" unicode="&#x0132;" d="M221 350Q221 319 226 305Q231 291 246 286Q261 281 294 281Q296 281 296 275Q296 269 294 269Q260 269 241 270L165 271L92 270Q72 269 37 269Q35 269 35 275Q35 281 37 281Q69 281 84 286Q99 291 104.50 305.50Q110 320 110 350L110 544Q110 574 104.50 588Q99 602 84 607.50Q69 613 37 613Q35 613 35 619Q35 625 37 625L92 624Q138 622 165 622Q196 622 242 624L294 625Q296 625 296 619Q296 613 294 613Q262 613 247 607Q232 601 226.50 586.50Q221 572 221 542L221 350M670 625Q673 625 673 619Q673 613 670 613Q644 613 631.50 607Q619 601 615 586.50Q611 572 611 542L611 258Q611 129 538.50 58Q466-13 345-13Q278-13 222 7.50Q166 28 133.50 61Q101 94 101 130Q101 155 117 172Q133 189 163 189Q195 189 207 170.50Q219 152 227 114Q234 80 244 59Q254 38 278 23Q302 8 346 8Q498 8 498 200L498 544Q498 574 491.50 588Q485 602 468 607.50Q451 613 414 613Q412 613 412 619Q412 625 414 625L476 624Q524 622 553 622Q581 622 623 624L670 625Z"  horiz-adv-x="699" vert-adv-y="1000"  />

      
      <glyph glyph-name="unicd" unicode="&#xcd;" d="M227 81Q227 50 232 36Q237 22 251.50 17Q266 12 298 12Q301 12 301 6Q301 0 298 0Q265 0 246 1L170 2L96 1Q76 0 42 0Q40 0 40 6Q40 12 42 12Q74 12 89 17Q104 22 109.50 36.50Q115 51 115 81L115 544Q115 574 109.50 588Q104 602 89 607.50Q74 613 42 613Q40 613 40 619Q40 625 42 625L96 624Q142 622 170 622Q201 622 247 624L298 625Q301 625 301 619Q301 613 298 613Q267 613 252 607Q237 601 232 586.50Q227 572 227 542L227 81M72 678Q68 678 67 682.50Q66 687 69 689Q98 710 150 755Q180 781 195 793Q200 798 230.50 789.50Q261 781 284.50 769.50Q308 758 296 756Q234 741 182.50 722.50Q131 704 74 679L72 678Z"  horiz-adv-x="342" vert-adv-y="1000"  />

      
      <glyph glyph-name="uni012C" unicode="&#x012C;" d="M227 81Q227 50 232 36Q237 22 251.50 17Q266 12 298 12Q301 12 301 6Q301 0 298 0Q265 0 246 1L170 2L96 1Q76 0 42 0Q40 0 40 6Q40 12 42 12Q74 12 89 17Q104 22 109.50 36.50Q115 51 115 81L115 544Q115 574 109.50 588Q104 602 89 607.50Q74 613 42 613Q40 613 40 619Q40 625 42 625L96 624Q142 622 170 622Q201 622 247 624L298 625Q301 625 301 619Q301 613 298 613Q267 613 252 607Q237 601 232 586.50Q227 572 227 542L227 81M171 690Q121 690 94.50 722.50Q68 755 68 817Q68 820 73.50 820Q79 820 79 818Q79 800 106 784Q133 768 171 768Q208 768 235 784Q262 800 262 818Q262 820 267.50 820Q273 820 273 817Q273 755 247 722.50Q221 690 171 690Z"  horiz-adv-x="342" vert-adv-y="1000"  />

      
      <glyph glyph-name="uni01CF" unicode="&#x01CF;" d="M227 81Q227 50 232 36Q237 22 251.50 17Q266 12 298 12Q301 12 301 6Q301 0 298 0Q265 0 246 1L170 2L96 1Q76 0 42 0Q40 0 40 6Q40 12 42 12Q74 12 89 17Q104 22 109.50 36.50Q115 51 115 81L115 544Q115 574 109.50 588Q104 602 89 607.50Q74 613 42 613Q40 613 40 619Q40 625 42 625L96 624Q142 622 170 622Q201 622 247 624L298 625Q301 625 301 619Q301 613 298 613Q267 613 252 607Q237 601 232 586.50Q227 572 227 542L227 81M56 802L56 804Q56 806 58.50 808Q61 810 62 809L171 771L279 811L280 811Q283 811 284.50 808.50Q286 806 284 804L182 687Q178 683 171 683Q163 683 159 687L56 802Z"  horiz-adv-x="342" vert-adv-y="1000"  />

      
      <glyph glyph-name="unice" unicode="&#xce;" d="M227 81Q227 50 232 36Q237 22 251.50 17Q266 12 298 12Q301 12 301 6Q301 0 298 0Q265 0 246 1L170 2L96 1Q76 0 42 0Q40 0 40 6Q40 12 42 12Q74 12 89 17Q104 22 109.50 36.50Q115 51 115 81L115 544Q115 574 109.50 588Q104 602 89 607.50Q74 613 42 613Q40 613 40 619Q40 625 42 625L96 624Q142 622 170 622Q201 622 247 624L298 625Q301 625 301 619Q301 613 298 613Q267 613 252 607Q237 601 232 586.50Q227 572 227 542L227 81M160 818Q165 823 172 823Q178 823 183 818L285 702Q286 702 286 700Q286 698 283.50 696Q281 694 280 695L172 734L63 695Q61 694 58 697.50Q55 701 57 702L160 818Z"  horiz-adv-x="342" vert-adv-y="1000"  />

      
      <glyph glyph-name="unicf" unicode="&#xcf;" d="M227 81Q227 50 232 36Q237 22 251.50 17Q266 12 298 12Q301 12 301 6Q301 0 298 0Q265 0 246 1L170 2L96 1Q76 0 42 0Q40 0 40 6Q40 12 42 12Q74 12 89 17Q104 22 109.50 36.50Q115 51 115 81L115 544Q115 574 109.50 588Q104 602 89 607.50Q74 613 42 613Q40 613 40 619Q40 625 42 625L96 624Q142 622 170 622Q201 622 247 624L298 625Q301 625 301 619Q301 613 298 613Q267 613 252 607Q237 601 232 586.50Q227 572 227 542L227 81M95 703Q69 703 54.50 717.50Q40 732 40 758Q40 782 55 796Q70 810 95 810Q120 810 134 796Q148 782 148 758Q148 732 134 717.50Q120 703 95 703M247 703Q222 703 208 717.50Q194 732 194 758Q194 782 208 795.50Q222 809 247 809Q272 809 285.50 795.50Q299 782 299 758Q299 732 285.50 717.50Q272 703 247 703Z"  horiz-adv-x="342" vert-adv-y="1000"  />

      
      <glyph glyph-name="uni0130" unicode="&#x0130;" d="M227 81Q227 50 232 36Q237 22 251.50 17Q266 12 298 12Q301 12 301 6Q301 0 298 0Q265 0 246 1L170 2L96 1Q76 0 42 0Q40 0 40 6Q40 12 42 12Q74 12 89 17Q104 22 109.50 36.50Q115 51 115 81L115 544Q115 574 109.50 588Q104 602 89 607.50Q74 613 42 613Q40 613 40 619Q40 625 42 625L96 624Q142 622 170 622Q201 622 247 624L298 625Q301 625 301 619Q301 613 298 613Q267 613 252 607Q237 601 232 586.50Q227 572 227 542L227 81M172 713Q143 713 127 729.50Q111 746 111 774Q111 800 127.50 816Q144 832 172 832Q199 832 214.50 816.50Q230 801 230 774Q230 745 215 729Q200 713 172 713Z"  horiz-adv-x="342" vert-adv-y="1000"  />

      
      <glyph glyph-name="uni1ECA" unicode="&#x1ECA;" d="M227 81Q227 50 232 36Q237 22 251.50 17Q266 12 298 12Q301 12 301 6Q301 0 298 0Q265 0 246 1L170 2L96 1Q76 0 42 0Q40 0 40 6Q40 12 42 12Q74 12 89 17Q104 22 109.50 36.50Q115 51 115 81L115 544Q115 574 109.50 588Q104 602 89 607.50Q74 613 42 613Q40 613 40 619Q40 625 42 625L96 624Q142 622 170 622Q201 622 247 624L298 625Q301 625 301 619Q301 613 298 613Q267 613 252 607Q237 601 232 586.50Q227 572 227 542L227 81M172-207Q143-207 127-191Q111-175 111-146Q111-120 127.50-104.50Q144-89 172-89Q199-89 214.50-104.50Q230-120 230-146Q230-175 215-191Q200-207 172-207Z"  horiz-adv-x="342" vert-adv-y="1000"  />

      
      <glyph glyph-name="unicc" unicode="&#xcc;" d="M227 81Q227 50 232 36Q237 22 251.50 17Q266 12 298 12Q301 12 301 6Q301 0 298 0Q265 0 246 1L170 2L96 1Q76 0 42 0Q40 0 40 6Q40 12 42 12Q74 12 89 17Q104 22 109.50 36.50Q115 51 115 81L115 544Q115 574 109.50 588Q104 602 89 607.50Q74 613 42 613Q40 613 40 619Q40 625 42 625L96 624Q142 622 170 622Q201 622 247 624L298 625Q301 625 301 619Q301 613 298 613Q267 613 252 607Q237 601 232 586.50Q227 572 227 542L227 81M271 679Q159 729 49 756Q37 758 60.50 769.50Q84 781 114.50 789.50Q145 798 150 793L197 753Q241 715 275 689Q278 688 278 685Q278 682 276 680Q274 678 271 679Z"  horiz-adv-x="342" vert-adv-y="1000"  />

      
      <glyph glyph-name="uni1EC8" unicode="&#x1EC8;" d="M227 81Q227 50 232 36Q237 22 251.50 17Q266 12 298 12Q301 12 301 6Q301 0 298 0Q265 0 246 1L170 2L96 1Q76 0 42 0Q40 0 40 6Q40 12 42 12Q74 12 89 17Q104 22 109.50 36.50Q115 51 115 81L115 544Q115 574 109.50 588Q104 602 89 607.50Q74 613 42 613Q40 613 40 619Q40 625 42 625L96 624Q142 622 170 622Q201 622 247 624L298 625Q301 625 301 619Q301 613 298 613Q267 613 252 607Q237 601 232 586.50Q227 572 227 542L227 81M172 651Q172 649 166.50 649Q161 649 160 651Q158 667 158 673Q158 701 173 735Q174 738 180 754.50Q186 771 186 789Q186 825 158 825Q144 825 122 815L120 815Q117 815 114.50 818Q112 821 115 823Q149 851 197 851Q229 851 248 837Q267 823 267 799Q267 778 254 760.50Q241 743 215 717Q192 693 182 679.50Q172 666 172 651Z"  horiz-adv-x="342" vert-adv-y="1000"  />

      
      <glyph glyph-name="uni012A" unicode="&#x012A;" d="M227 81Q227 50 232 36Q237 22 251.50 17Q266 12 298 12Q301 12 301 6Q301 0 298 0Q265 0 246 1L170 2L96 1Q76 0 42 0Q40 0 40 6Q40 12 42 12Q74 12 89 17Q104 22 109.50 36.50Q115 51 115 81L115 544Q115 574 109.50 588Q104 602 89 607.50Q74 613 42 613Q40 613 40 619Q40 625 42 625L96 624Q142 622 170 622Q201 622 247 624L298 625Q301 625 301 619Q301 613 298 613Q267 613 252 607Q237 601 232 586.50Q227 572 227 542L227 81M45 713Q41 713 38 718.50Q35 724 35 732Q35 739 38 744.50Q41 750 45 750L296 750Q301 750 304 744.50Q307 739 307 732Q307 724 304 718.50Q301 713 296 713L45 713Z"  horiz-adv-x="342" vert-adv-y="1000"  />

      
      <glyph glyph-name="uni012E" unicode="&#x012E;" d="M298 12Q301 12 301 6Q301 0 298 0Q266 0 249 1L178 2Q159-40 159-91Q159-128 170.50-159.50Q182-191 202-210Q222-229 245-229Q264-229 276-222L278-222Q281-222 283.50-225Q286-228 283-230Q259-254 235.50-264.50Q212-275 180-275Q131-275 103.50-246.50Q76-218 76-168Q76-85 160 2L93 1Q74 0 42 0Q40 0 40 6Q40 12 42 12Q74 12 89 17Q104 22 109.50 36.50Q115 51 115 81L115 544Q115 574 109.50 588Q104 602 89 607.50Q74 613 42 613Q40 613 40 619Q40 625 42 625L96 624Q142 622 170 622Q201 622 247 624L298 625Q301 625 301 619Q301 613 298 613Q267 613 252 607Q237 601 232 586.50Q227 572 227 542L227 81Q227 50 232 36Q237 22 251.50 17Q266 12 298 12Z"  horiz-adv-x="342" vert-adv-y="1000"  />

      
      <glyph glyph-name="uni0128" unicode="&#x0128;" d="M227 81Q227 50 232 36Q237 22 251.50 17Q266 12 298 12Q301 12 301 6Q301 0 298 0Q265 0 246 1L170 2L96 1Q76 0 42 0Q40 0 40 6Q40 12 42 12Q74 12 89 17Q104 22 109.50 36.50Q115 51 115 81L115 544Q115 574 109.50 588Q104 602 89 607.50Q74 613 42 613Q40 613 40 619Q40 625 42 625L96 624Q142 622 170 622Q201 622 247 624L298 625Q301 625 301 619Q301 613 298 613Q267 613 252 607Q237 601 232 586.50Q227 572 227 542L227 81M46 697Q44 697 41.50 699.50Q39 702 40 704Q83 785 128 785Q138 785 154 780.50Q170 776 175 775Q221 761 248 761Q265 761 275.50 766.50Q286 772 300 788L301 788Q304 788 306 785.50Q308 783 307 781Q280 732 263 716Q246 700 224 700Q204 700 167 711Q150 716 132 720Q114 724 98 724Q79 724 71 719Q63 714 47 697L46 697Z"  horiz-adv-x="342" vert-adv-y="1000"  />

      
      <glyph glyph-name="uni4a" unicode="&#x4a;" d="M298 625Q301 625 301 619Q301 613 298 613Q272 613 259.50 607Q247 601 243 586.50Q239 572 239 542L239-4Q239-116 183.50-179Q128-242 29-242Q-9-242-33-226Q-57-210-57-182Q-57-162-44-146.50Q-31-131-5-131Q20-131 33.50-146Q47-161 58-188Q64-204 70-212.50Q76-221 85-221Q106-221 116-187Q126-153 126-74L126 544Q126 574 119.50 588Q113 602 96 607.50Q79 613 42 613Q40 613 40 619Q40 625 42 625L104 624Q152 622 181 622Q209 622 251 624L298 625Z"  horiz-adv-x="339" vert-adv-y="1000"  />

      
      <glyph glyph-name="uni0134" unicode="&#x0134;" d="M298 625Q301 625 301 619Q301 613 298 613Q272 613 259.50 607Q247 601 243 586.50Q239 572 239 542L239-4Q239-116 183.50-179Q128-242 29-242Q-9-242-33-226Q-57-210-57-182Q-57-162-44-146.50Q-31-131-5-131Q20-131 33.50-146Q47-161 58-188Q64-204 70-212.50Q76-221 85-221Q106-221 116-187Q126-153 126-74L126 544Q126 574 119.50 588Q113 602 96 607.50Q79 613 42 613Q40 613 40 619Q40 625 42 625L104 624Q152 622 181 622Q209 622 251 624L298 625M164 818Q169 823 176 823Q182 823 187 818L289 702Q290 702 290 700Q290 698 287.50 696Q285 694 284 695L176 734L67 695Q65 694 62 697.50Q59 701 61 702L164 818Z"  horiz-adv-x="339" vert-adv-y="1000"  />

      
      <glyph glyph-name="uni4b" unicode="&#x4b;" d="M664 12Q667 12 667 6Q667 0 664 0L552 0Q536 0 525-1Q514-2 507-2Q491-2 479.50 5.50Q468 13 451.50 33Q435 53 393 110Q388 117 381.50 125.50Q375 134 367 145L236 321L214 299L214 81Q214 50 219 36Q224 22 238.50 17Q253 12 285 12Q289 12 289 6Q289 0 285 0Q252 0 233 1L158 2L84 1Q64 0 30 0Q28 0 28 6Q28 12 30 12Q62 12 77 17Q92 22 97.50 36.50Q103 51 103 81L103 544Q103 574 97.50 588Q92 602 77.50 607.50Q63 613 32 613Q29 613 29 619Q29 625 32 625L85 624Q131 622 158 622Q188 622 234 624L285 625Q288 625 288 619Q288 613 285 613Q254 613 239.50 607Q225 601 219.50 586.50Q214 572 214 542L214 330L402 522Q431 551 431 575Q431 593 415 603Q399 613 370 613Q367 613 367 619Q367 625 370 625L417 624Q461 622 499 622Q540 622 584 624L629 625Q632 625 632 619Q632 613 629 613Q583 613 528 586.50Q473 560 428 516L315 401L463 201Q528 108 560.50 69.50Q593 31 613 21.50Q633 12 664 12Z"  horiz-adv-x="655" vert-adv-y="1000"  />

      
      <glyph glyph-name="uni1E30" unicode="&#x1E30;" d="M664 12Q667 12 667 6Q667 0 664 0L552 0Q536 0 525-1Q514-2 507-2Q491-2 479.50 5.50Q468 13 451.50 33Q435 53 393 110Q388 117 381.50 125.50Q375 134 367 145L236 321L214 299L214 81Q214 50 219 36Q224 22 238.50 17Q253 12 285 12Q289 12 289 6Q289 0 285 0Q252 0 233 1L158 2L84 1Q64 0 30 0Q28 0 28 6Q28 12 30 12Q62 12 77 17Q92 22 97.50 36.50Q103 51 103 81L103 544Q103 574 97.50 588Q92 602 77.50 607.50Q63 613 32 613Q29 613 29 619Q29 625 32 625L85 624Q131 622 158 622Q188 622 234 624L285 625Q288 625 288 619Q288 613 285 613Q254 613 239.50 607Q225 601 219.50 586.50Q214 572 214 542L214 330L402 522Q431 551 431 575Q431 593 415 603Q399 613 370 613Q367 613 367 619Q367 625 370 625L417 624Q461 622 499 622Q540 622 584 624L629 625Q632 625 632 619Q632 613 629 613Q583 613 528 586.50Q473 560 428 516L315 401L463 201Q528 108 560.50 69.50Q593 31 613 21.50Q633 12 664 12M232 678Q228 678 227 682.50Q226 687 229 689Q258 710 310 755Q340 781 355 793Q360 798 390.50 789.50Q421 781 444.50 769.50Q468 758 456 756Q394 741 342.50 722.50Q291 704 234 679L232 678Z"  horiz-adv-x="655" vert-adv-y="1000"  />

      
      <glyph glyph-name="uni01E8" unicode="&#x01E8;" d="M664 12Q667 12 667 6Q667 0 664 0L552 0Q536 0 525-1Q514-2 507-2Q491-2 479.50 5.50Q468 13 451.50 33Q435 53 393 110Q388 117 381.50 125.50Q375 134 367 145L236 321L214 299L214 81Q214 50 219 36Q224 22 238.50 17Q253 12 285 12Q289 12 289 6Q289 0 285 0Q252 0 233 1L158 2L84 1Q64 0 30 0Q28 0 28 6Q28 12 30 12Q62 12 77 17Q92 22 97.50 36.50Q103 51 103 81L103 544Q103 574 97.50 588Q92 602 77.50 607.50Q63 613 32 613Q29 613 29 619Q29 625 32 625L85 624Q131 622 158 622Q188 622 234 624L285 625Q288 625 288 619Q288 613 285 613Q254 613 239.50 607Q225 601 219.50 586.50Q214 572 214 542L214 330L402 522Q431 551 431 575Q431 593 415 603Q399 613 370 613Q367 613 367 619Q367 625 370 625L417 624Q461 622 499 622Q540 622 584 624L629 625Q632 625 632 619Q632 613 629 613Q583 613 528 586.50Q473 560 428 516L315 401L463 201Q528 108 560.50 69.50Q593 31 613 21.50Q633 12 664 12M216 802L216 804Q216 806 218.50 808Q221 810 222 809L331 771L439 811L440 811Q443 811 444.50 808.50Q446 806 444 804L342 687Q338 683 331 683Q323 683 319 687L216 802Z"  horiz-adv-x="655" vert-adv-y="1000"  />

      
      <glyph glyph-name="uni0136" unicode="&#x0136;" d="M664 12Q667 12 667 6Q667 0 664 0L552 0Q536 0 525-1Q514-2 507-2Q491-2 479.50 5.50Q468 13 451.50 33Q435 53 393 110Q388 117 381.50 125.50Q375 134 367 145L236 321L214 299L214 81Q214 50 219 36Q224 22 238.50 17Q253 12 285 12Q289 12 289 6Q289 0 285 0Q252 0 233 1L158 2L84 1Q64 0 30 0Q28 0 28 6Q28 12 30 12Q62 12 77 17Q92 22 97.50 36.50Q103 51 103 81L103 544Q103 574 97.50 588Q92 602 77.50 607.50Q63 613 32 613Q29 613 29 619Q29 625 32 625L85 624Q131 622 158 622Q188 622 234 624L285 625Q288 625 288 619Q288 613 285 613Q254 613 239.50 607Q225 601 219.50 586.50Q214 572 214 542L214 330L402 522Q431 551 431 575Q431 593 415 603Q399 613 370 613Q367 613 367 619Q367 625 370 625L417 624Q461 622 499 622Q540 622 584 624L629 625Q632 625 632 619Q632 613 629 613Q583 613 528 586.50Q473 560 428 516L315 401L463 201Q528 108 560.50 69.50Q593 31 613 21.50Q633 12 664 12M345-69Q379-69 397-91Q415-113 415-150Q415-189 395-219Q375-249 339-275L337-276Q333-276 331-271.50Q329-267 332-265Q354-249 367-232.50Q380-216 380-198Q380-175 370-165Q360-184 329-184Q308-184 294-168Q280-152 280-127Q280-100 299-84.50Q318-69 345-69Z"  horiz-adv-x="655" vert-adv-y="1000"  />

      
      <glyph glyph-name="uni4c" unicode="&#x4c;" d="M213 85Q213 59 217 47.50Q221 36 232.50 32Q244 28 270 28L304 28Q382 28 439 69.50Q496 111 515 182Q515 184 519 184Q521 184 523.50 182.50Q526 181 526 180Q517 81 517 15Q517 7 513.50 3.50Q510 0 502 0L30 0Q28 0 28 6Q28 12 30 12Q62 12 76.50 17Q91 22 96.50 36.50Q102 51 102 81L102 544Q102 574 96.50 588Q91 602 76 607.50Q61 613 30 613Q28 613 28 619Q28 625 30 625L81 624Q127 622 157 622Q187 622 233 624L284 625Q287 625 287 619Q287 613 284 613Q253 613 238 607.50Q223 602 218 587.50Q213 573 213 543L213 85Z"  horiz-adv-x="545" vert-adv-y="1000"  />

      
      <glyph glyph-name="uni0139" unicode="&#x0139;" d="M213 85Q213 59 217 47.50Q221 36 232.50 32Q244 28 270 28L304 28Q382 28 439 69.50Q496 111 515 182Q515 184 519 184Q521 184 523.50 182.50Q526 181 526 180Q517 81 517 15Q517 7 513.50 3.50Q510 0 502 0L30 0Q28 0 28 6Q28 12 30 12Q62 12 76.50 17Q91 22 96.50 36.50Q102 51 102 81L102 544Q102 574 96.50 588Q91 602 76 607.50Q61 613 30 613Q28 613 28 619Q28 625 30 625L81 624Q127 622 157 622Q187 622 233 624L284 625Q287 625 287 619Q287 613 284 613Q253 613 238 607.50Q223 602 218 587.50Q213 573 213 543L213 85M64 678Q60 678 59 682.50Q58 687 61 689Q90 710 142 755Q172 781 187 793Q192 798 222.50 789.50Q253 781 276.50 769.50Q300 758 288 756Q226 741 174.50 722.50Q123 704 66 679L64 678Z"  horiz-adv-x="545" vert-adv-y="1000"  />

      
      <glyph glyph-name="uni013D" unicode="&#x013D;" d="M213 85Q213 59 217 47.50Q221 36 232.50 32Q244 28 270 28L304 28Q382 28 439 69.50Q496 111 515 182Q515 184 519 184Q521 184 523.50 182.50Q526 181 526 180Q517 81 517 15Q517 7 513.50 3.50Q510 0 502 0L30 0Q28 0 28 6Q28 12 30 12Q62 12 76.50 17Q91 22 96.50 36.50Q102 51 102 81L102 544Q102 574 96.50 588Q91 602 76 607.50Q61 613 30 613Q28 613 28 619Q28 625 30 625L81 624Q127 622 157 622Q187 622 233 624L284 625Q287 625 287 619Q287 613 284 613Q253 613 238 607.50Q223 602 218 587.50Q213 573 213 543L213 85M353 625Q353 630 374 623.50Q395 617 414 606.50Q433 596 431 588L372 352Q371 350 366 350.50Q361 351 361 353L353 625Z"  horiz-adv-x="545" vert-adv-y="1000"  />

      
      <glyph glyph-name="uni013B" unicode="&#x013B;" d="M213 85Q213 59 217 47.50Q221 36 232.50 32Q244 28 270 28L304 28Q382 28 439 69.50Q496 111 515 182Q515 184 519 184Q521 184 523.50 182.50Q526 181 526 180Q517 81 517 15Q517 7 513.50 3.50Q510 0 502 0L30 0Q28 0 28 6Q28 12 30 12Q62 12 76.50 17Q91 22 96.50 36.50Q102 51 102 81L102 544Q102 574 96.50 588Q91 602 76 607.50Q61 613 30 613Q28 613 28 619Q28 625 30 625L81 624Q127 622 157 622Q187 622 233 624L284 625Q287 625 287 619Q287 613 284 613Q253 613 238 607.50Q223 602 218 587.50Q213 573 213 543L213 85M287-69Q321-69 339-91Q357-113 357-150Q357-189 337-219Q317-249 281-275L279-276Q275-276 273-271.50Q271-267 274-265Q296-249 309-232.50Q322-216 322-198Q322-175 312-165Q302-184 271-184Q250-184 236-168Q222-152 222-127Q222-100 241-84.50Q260-69 287-69Z"  horiz-adv-x="545" vert-adv-y="1000"  />

      
      <glyph glyph-name="uni013F" unicode="&#x013F;" d="M213 85Q213 59 217 47.50Q221 36 232.50 32Q244 28 270 28L304 28Q382 28 439 69.50Q496 111 515 182Q515 184 519 184Q521 184 523.50 182.50Q526 181 526 180Q517 81 517 15Q517 7 513.50 3.50Q510 0 502 0L30 0Q28 0 28 6Q28 12 30 12Q62 12 76.50 17Q91 22 96.50 36.50Q102 51 102 81L102 544Q102 574 96.50 588Q91 602 76 607.50Q61 613 30 613Q28 613 28 619Q28 625 30 625L81 624Q127 622 157 622Q187 622 233 624L284 625Q287 625 287 619Q287 613 284 613Q253 613 238 607.50Q223 602 218 587.50Q213 573 213 543L213 85M428 256Q400 256 383.50 272.50Q367 289 367 317Q367 343 383.50 359Q400 375 428 375Q456 375 471.50 359.50Q487 344 487 317Q487 288 471.50 272Q456 256 428 256Z"  horiz-adv-x="545" vert-adv-y="1000"  />

      
      <glyph glyph-name="uni1E36" unicode="&#x1E36;" d="M213 85Q213 59 217 47.50Q221 36 232.50 32Q244 28 270 28L304 28Q382 28 439 69.50Q496 111 515 182Q515 184 519 184Q521 184 523.50 182.50Q526 181 526 180Q517 81 517 15Q517 7 513.50 3.50Q510 0 502 0L30 0Q28 0 28 6Q28 12 30 12Q62 12 76.50 17Q91 22 96.50 36.50Q102 51 102 81L102 544Q102 574 96.50 588Q91 602 76 607.50Q61 613 30 613Q28 613 28 619Q28 625 30 625L81 624Q127 622 157 622Q187 622 233 624L284 625Q287 625 287 619Q287 613 284 613Q253 613 238 607.50Q223 602 218 587.50Q213 573 213 543L213 85M293-207Q264-207 248-191Q232-175 232-146Q232-120 248.50-104.50Q265-89 293-89Q320-89 335.50-104.50Q351-120 351-146Q351-175 336-191Q321-207 293-207Z"  horiz-adv-x="545" vert-adv-y="1000"  />

      
      <glyph glyph-name="uni1E38" unicode="&#x1E38;" d="M213 85Q213 59 217 47.50Q221 36 232.50 32Q244 28 270 28L304 28Q382 28 439 69.50Q496 111 515 182Q515 184 519 184Q521 184 523.50 182.50Q526 181 526 180Q517 81 517 15Q517 7 513.50 3.50Q510 0 502 0L30 0Q28 0 28 6Q28 12 30 12Q62 12 76.50 17Q91 22 96.50 36.50Q102 51 102 81L102 544Q102 574 96.50 588Q91 602 76 607.50Q61 613 30 613Q28 613 28 619Q28 625 30 625L81 624Q127 622 157 622Q187 622 233 624L284 625Q287 625 287 619Q287 613 284 613Q253 613 238 607.50Q223 602 218 587.50Q213 573 213 543L213 85M293-207Q264-207 248-191Q232-175 232-146Q232-120 248.50-104.50Q265-89 293-89Q320-89 335.50-104.50Q351-120 351-146Q351-175 336-191Q321-207 293-207M37 713Q27 713 27 732Q27 739 29.50 744.50Q32 750 37 750L288 750Q293 750 295.50 744.50Q298 739 298 732Q298 713 288 713L37 713Z"  horiz-adv-x="545" vert-adv-y="1000"  />

      
      <glyph glyph-name="uni1E3A" unicode="&#x1E3A;" d="M213 85Q213 59 217 47.50Q221 36 232.50 32Q244 28 270 28L304 28Q382 28 439 69.50Q496 111 515 182Q515 184 519 184Q521 184 523.50 182.50Q526 181 526 180Q517 81 517 15Q517 7 513.50 3.50Q510 0 502 0L30 0Q28 0 28 6Q28 12 30 12Q62 12 76.50 17Q91 22 96.50 36.50Q102 51 102 81L102 544Q102 574 96.50 588Q91 602 76 607.50Q61 613 30 613Q28 613 28 619Q28 625 30 625L81 624Q127 622 157 622Q187 622 233 624L284 625Q287 625 287 619Q287 613 284 613Q253 613 238 607.50Q223 602 218 587.50Q213 573 213 543L213 85M166-122Q161-122 158.50-116.50Q156-111 156-104Q156-85 166-85L417-85Q427-85 427-104Q427-111 424.50-116.50Q422-122 417-122L166-122Z"  horiz-adv-x="545" vert-adv-y="1000"  />

      
      <glyph glyph-name="uni0141" unicode="&#x0141;" d="M515 182Q515 184 519 184Q521 184 523.50 182.50Q526 181 526 180Q517 81 517 15Q517 7 513.50 3.50Q510 0 502 0L30 0Q28 0 28 6Q28 12 30 12Q62 12 76.50 17Q91 22 96.50 36.50Q102 51 102 81L102 246L49 215Q45 213 38 225.50Q31 238 35 240L102 279L102 544Q102 574 96.50 588Q91 602 76 607.50Q61 613 30 613Q28 613 28 619Q28 625 30 625L81 624Q127 622 157 622Q187 622 233 624L284 625Q287 625 287 619Q287 613 284 613Q253 613 238 607.50Q223 602 218 587.50Q213 573 213 543L213 343L325 407Q328 409 335 396.50Q342 384 338 382L213 310L213 85Q213 59 217 47.50Q221 36 232.50 32Q244 28 270 28L304 28Q382 28 439 69.50Q496 111 515 182Z"  horiz-adv-x="545" vert-adv-y="1000"  />

      
      <glyph glyph-name="uni4d" unicode="&#x4d;" d="M833 12Q835 12 835 6Q835 0 833 0Q799 0 779 1L705 2L630 1Q611 0 578 0Q575 0 575 6Q575 12 578 12Q620 12 635 22Q650 32 650 64L649 81L628 490L422 7Q420 3 414 3Q408 3 406 7L153 488L145 127Q144 73 166.50 42.50Q189 12 230 12Q233 12 233 6Q233 0 230 0Q203 0 188 1L133 2L70 1Q54 0 27 0Q24 0 24 6Q24 12 27 12Q68 12 92 43Q116 74 117 127L126 541L125 542Q105 579 83.50 596Q62 613 34 613Q31 613 31 619Q31 625 34 625L81 624Q95 623 117 623L170 624Q179 625 193 625Q206 625 213 616Q220 607 239 573L457 164L647 600Q653 614 659.50 619.50Q666 625 677 625Q686 625 697.50 624Q709 623 724 623L783 624Q797 625 823 625Q826 625 826 619Q826 613 823 613Q776 613 755 594Q734 575 736 535L760 81Q762 50 767.50 36Q773 22 787.50 17Q802 12 833 12Z"  horiz-adv-x="857" vert-adv-y="1000"  />

      
      <glyph glyph-name="uni1E40" unicode="&#x1E40;" d="M833 12Q835 12 835 6Q835 0 833 0Q799 0 779 1L705 2L630 1Q611 0 578 0Q575 0 575 6Q575 12 578 12Q620 12 635 22Q650 32 650 64L649 81L628 490L422 7Q420 3 414 3Q408 3 406 7L153 488L145 127Q144 73 166.50 42.50Q189 12 230 12Q233 12 233 6Q233 0 230 0Q203 0 188 1L133 2L70 1Q54 0 27 0Q24 0 24 6Q24 12 27 12Q68 12 92 43Q116 74 117 127L126 541L125 542Q105 579 83.50 596Q62 613 34 613Q31 613 31 619Q31 625 34 625L81 624Q95 623 117 623L170 624Q179 625 193 625Q206 625 213 616Q220 607 239 573L457 164L647 600Q653 614 659.50 619.50Q666 625 677 625Q686 625 697.50 624Q709 623 724 623L783 624Q797 625 823 625Q826 625 826 619Q826 613 823 613Q776 613 755 594Q734 575 736 535L760 81Q762 50 767.50 36Q773 22 787.50 17Q802 12 833 12M430 713Q401 713 385 729.50Q369 746 369 774Q369 800 385.50 816Q402 832 430 832Q457 832 472.50 816.50Q488 801 488 774Q488 745 473 729Q458 713 430 713Z"  horiz-adv-x="857" vert-adv-y="1000"  />

      
      <glyph glyph-name="uni1E42" unicode="&#x1E42;" d="M833 12Q835 12 835 6Q835 0 833 0Q799 0 779 1L705 2L630 1Q611 0 578 0Q575 0 575 6Q575 12 578 12Q620 12 635 22Q650 32 650 64L649 81L628 490L422 7Q420 3 414 3Q408 3 406 7L153 488L145 127Q144 73 166.50 42.50Q189 12 230 12Q233 12 233 6Q233 0 230 0Q203 0 188 1L133 2L70 1Q54 0 27 0Q24 0 24 6Q24 12 27 12Q68 12 92 43Q116 74 117 127L126 541L125 542Q105 579 83.50 596Q62 613 34 613Q31 613 31 619Q31 625 34 625L81 624Q95 623 117 623L170 624Q179 625 193 625Q206 625 213 616Q220 607 239 573L457 164L647 600Q653 614 659.50 619.50Q666 625 677 625Q686 625 697.50 624Q709 623 724 623L783 624Q797 625 823 625Q826 625 826 619Q826 613 823 613Q776 613 755 594Q734 575 736 535L760 81Q762 50 767.50 36Q773 22 787.50 17Q802 12 833 12M419-207Q390-207 374-191Q358-175 358-146Q358-120 374.50-104.50Q391-89 419-89Q446-89 461.50-104.50Q477-120 477-146Q477-175 462-191Q447-207 419-207Z"  horiz-adv-x="857" vert-adv-y="1000"  />

      
      <glyph glyph-name="uni4e" unicode="&#x4e;" d="M723 625Q725 625 725 619Q725 613 723 613Q683 613 660 581.50Q637 550 637 497L637-15Q637-18 632.50-19Q628-20 626-18L157 516L157 127Q157 74 179 43Q201 12 240 12Q242 12 242 6Q242 0 240 0Q212 0 197 1L143 2L81 1Q64 0 32 0Q29 0 29 6Q29 12 32 12Q76 12 101.50 43Q127 74 127 127L127 550Q94 586 70.50 599.50Q47 613 22 613Q20 613 20 619Q20 625 22 625L64 624Q77 623 102 623L178 624Q192 625 212 625Q220 625 224 621Q228 617 238 604Q255 581 262 573L608 174L608 497Q608 551 586 582Q564 613 525 613Q523 613 523 619Q523 625 525 625L568 624Q600 622 622 622Q642 622 678 624L723 625Z"  horiz-adv-x="735" vert-adv-y="1000"  />

      
      <glyph glyph-name="uni0143" unicode="&#x0143;" d="M723 625Q725 625 725 619Q725 613 723 613Q683 613 660 581.50Q637 550 637 497L637-15Q637-18 632.50-19Q628-20 626-18L157 516L157 127Q157 74 179 43Q201 12 240 12Q242 12 242 6Q242 0 240 0Q212 0 197 1L143 2L81 1Q64 0 32 0Q29 0 29 6Q29 12 32 12Q76 12 101.50 43Q127 74 127 127L127 550Q94 586 70.50 599.50Q47 613 22 613Q20 613 20 619Q20 625 22 625L64 624Q77 623 102 623L178 624Q192 625 212 625Q220 625 224 621Q228 617 238 604Q255 581 262 573L608 174L608 497Q608 551 586 582Q564 613 525 613Q523 613 523 619Q523 625 525 625L568 624Q600 622 622 622Q642 622 678 624L723 625M283 678Q279 678 278 682.50Q277 687 280 689Q309 710 361 755Q391 781 406 793Q411 798 441.50 789.50Q472 781 495.50 769.50Q519 758 507 756Q445 741 393.50 722.50Q342 704 285 679L283 678Z"  horiz-adv-x="735" vert-adv-y="1000"  />

      
      <glyph glyph-name="uni0147" unicode="&#x0147;" d="M723 625Q725 625 725 619Q725 613 723 613Q683 613 660 581.50Q637 550 637 497L637-15Q637-18 632.50-19Q628-20 626-18L157 516L157 127Q157 74 179 43Q201 12 240 12Q242 12 242 6Q242 0 240 0Q212 0 197 1L143 2L81 1Q64 0 32 0Q29 0 29 6Q29 12 32 12Q76 12 101.50 43Q127 74 127 127L127 550Q94 586 70.50 599.50Q47 613 22 613Q20 613 20 619Q20 625 22 625L64 624Q77 623 102 623L178 624Q192 625 212 625Q220 625 224 621Q228 617 238 604Q255 581 262 573L608 174L608 497Q608 551 586 582Q564 613 525 613Q523 613 523 619Q523 625 525 625L568 624Q600 622 622 622Q642 622 678 624L723 625M267 802L267 804Q267 806 269.50 808Q272 810 273 809L382 771L490 811L491 811Q494 811 495.50 808.50Q497 806 495 804L393 687Q389 683 382 683Q374 683 370 687L267 802Z"  horiz-adv-x="735" vert-adv-y="1000"  />

      
      <glyph glyph-name="uni0145" unicode="&#x0145;" d="M723 625Q725 625 725 619Q725 613 723 613Q683 613 660 581.50Q637 550 637 497L637-15Q637-18 632.50-19Q628-20 626-18L157 516L157 127Q157 74 179 43Q201 12 240 12Q242 12 242 6Q242 0 240 0Q212 0 197 1L143 2L81 1Q64 0 32 0Q29 0 29 6Q29 12 32 12Q76 12 101.50 43Q127 74 127 127L127 550Q94 586 70.50 599.50Q47 613 22 613Q20 613 20 619Q20 625 22 625L64 624Q77 623 102 623L178 624Q192 625 212 625Q220 625 224 621Q228 617 238 604Q255 581 262 573L608 174L608 497Q608 551 586 582Q564 613 525 613Q523 613 523 619Q523 625 525 625L568 624Q600 622 622 622Q642 622 678 624L723 625M369-69Q403-69 421-91Q439-113 439-150Q439-189 419-219Q399-249 363-275L361-276Q357-276 355-271.50Q353-267 356-265Q378-249 391-232.50Q404-216 404-198Q404-175 394-165Q384-184 353-184Q332-184 318-168Q304-152 304-127Q304-100 323-84.50Q342-69 369-69Z"  horiz-adv-x="735" vert-adv-y="1000"  />

      
      <glyph glyph-name="uni1E44" unicode="&#x1E44;" d="M723 625Q725 625 725 619Q725 613 723 613Q683 613 660 581.50Q637 550 637 497L637-15Q637-18 632.50-19Q628-20 626-18L157 516L157 127Q157 74 179 43Q201 12 240 12Q242 12 242 6Q242 0 240 0Q212 0 197 1L143 2L81 1Q64 0 32 0Q29 0 29 6Q29 12 32 12Q76 12 101.50 43Q127 74 127 127L127 550Q94 586 70.50 599.50Q47 613 22 613Q20 613 20 619Q20 625 22 625L64 624Q77 623 102 623L178 624Q192 625 212 625Q220 625 224 621Q228 617 238 604Q255 581 262 573L608 174L608 497Q608 551 586 582Q564 613 525 613Q523 613 523 619Q523 625 525 625L568 624Q600 622 622 622Q642 622 678 624L723 625M383 713Q354 713 338 729.50Q322 746 322 774Q322 800 338.50 816Q355 832 383 832Q410 832 425.50 816.50Q441 801 441 774Q441 745 426 729Q411 713 383 713Z"  horiz-adv-x="735" vert-adv-y="1000"  />

      
      <glyph glyph-name="uni1E46" unicode="&#x1E46;" d="M723 625Q725 625 725 619Q725 613 723 613Q683 613 660 581.50Q637 550 637 497L637-15Q637-18 632.50-19Q628-20 626-18L157 516L157 127Q157 74 179 43Q201 12 240 12Q242 12 242 6Q242 0 240 0Q212 0 197 1L143 2L81 1Q64 0 32 0Q29 0 29 6Q29 12 32 12Q76 12 101.50 43Q127 74 127 127L127 550Q94 586 70.50 599.50Q47 613 22 613Q20 613 20 619Q20 625 22 625L64 624Q77 623 102 623L178 624Q192 625 212 625Q220 625 224 621Q228 617 238 604Q255 581 262 573L608 174L608 497Q608 551 586 582Q564 613 525 613Q523 613 523 619Q523 625 525 625L568 624Q600 622 622 622Q642 622 678 624L723 625M375-207Q346-207 330-191Q314-175 314-146Q314-120 330.50-104.50Q347-89 375-89Q402-89 417.50-104.50Q433-120 433-146Q433-175 418-191Q403-207 375-207Z"  horiz-adv-x="735" vert-adv-y="1000"  />

      
      <glyph glyph-name="uni014A" unicode="&#x014A;" d="M723 625Q725 625 725 619Q725 613 723 613Q683 613 660 581.50Q637 550 637 497L637-15Q637-96 601-143.50Q565-191 504-191Q457-191 428-173Q399-155 399-126Q399-104 413.50-88.50Q428-73 451-73Q480-73 489.50-87Q499-101 502-126Q504-145 509-154.50Q514-164 530-164Q566-164 587-123.50Q608-83 608-16L608 2L157 516L157 127Q157 74 179 43Q201 12 240 12Q242 12 242 6Q242 0 240 0Q212 0 197 1L143 2L81 1Q64 0 32 0Q29 0 29 6Q29 12 32 12Q76 12 101.50 43Q127 74 127 127L127 550Q94 586 70.50 599.50Q47 613 22 613Q20 613 20 619Q20 625 22 625L64 624Q77 623 102 623L178 624Q192 625 212 625Q220 625 224 621Q228 617 238 604Q255 581 262 573L608 174L608 497Q608 551 586 582Q564 613 525 613Q523 613 523 619Q523 625 525 625L568 624Q600 622 622 622Q642 622 678 624L723 625Z"  horiz-adv-x="735" vert-adv-y="1000"  />

      
      <glyph glyph-name="uni1E48" unicode="&#x1E48;" d="M723 625Q725 625 725 619Q725 613 723 613Q683 613 660 581.50Q637 550 637 497L637-15Q637-18 632.50-19Q628-20 626-18L157 516L157 127Q157 74 179 43Q201 12 240 12Q242 12 242 6Q242 0 240 0Q212 0 197 1L143 2L81 1Q64 0 32 0Q29 0 29 6Q29 12 32 12Q76 12 101.50 43Q127 74 127 127L127 550Q94 586 70.50 599.50Q47 613 22 613Q20 613 20 619Q20 625 22 625L64 624Q77 623 102 623L178 624Q192 625 212 625Q220 625 224 621Q228 617 238 604Q255 581 262 573L608 174L608 497Q608 551 586 582Q564 613 525 613Q523 613 523 619Q523 625 525 625L568 624Q600 622 622 622Q642 622 678 624L723 625M248-122Q243-122 240.50-116.50Q238-111 238-104Q238-85 248-85L499-85Q509-85 509-104Q509-111 506.50-116.50Q504-122 499-122L248-122Z"  horiz-adv-x="735" vert-adv-y="1000"  />

      
      <glyph glyph-name="unid1" unicode="&#xd1;" d="M723 625Q725 625 725 619Q725 613 723 613Q683 613 660 581.50Q637 550 637 497L637-15Q637-18 632.50-19Q628-20 626-18L157 516L157 127Q157 74 179 43Q201 12 240 12Q242 12 242 6Q242 0 240 0Q212 0 197 1L143 2L81 1Q64 0 32 0Q29 0 29 6Q29 12 32 12Q76 12 101.50 43Q127 74 127 127L127 550Q94 586 70.50 599.50Q47 613 22 613Q20 613 20 619Q20 625 22 625L64 624Q77 623 102 623L178 624Q192 625 212 625Q220 625 224 621Q228 617 238 604Q255 581 262 573L608 174L608 497Q608 551 586 582Q564 613 525 613Q523 613 523 619Q523 625 525 625L568 624Q600 622 622 622Q642 622 678 624L723 625M463 761Q480 761 490.50 767Q501 773 514 788L515 788Q518 788 520.50 785.50Q523 783 521 781Q495 733 477.50 716.50Q460 700 438 700Q419 700 382 711Q378 712 355.50 718Q333 724 313 724Q294 724 286 719Q278 714 262 697L261 697Q258 697 255.50 699.50Q253 702 254 704Q273 738 294.50 761.50Q316 785 342 785Q352 785 388 775Q394 774 418 767.50Q442 761 463 761Z"  horiz-adv-x="735" vert-adv-y="1000"  />

      
      <glyph glyph-name="uni4f" unicode="&#x4f;" d="M366-12Q273-12 200.50 31.50Q128 75 88.50 149.50Q49 224 49 312Q49 415 101 488.50Q153 562 234.50 599Q316 636 401 636Q496 636 568 591.50Q640 547 678.50 474Q717 401 717 319Q717 228 669 152Q621 76 540.50 32Q460-12 366-12M399 13Q455 13 499.50 45.50Q544 78 569 140.50Q594 203 594 290Q594 382 566 454.50Q538 527 485 568Q432 609 361 609Q270 609 221 540.50Q172 472 172 349Q172 252 201.50 175.50Q231 99 282.50 56Q334 13 399 13Z"  horiz-adv-x="766" vert-adv-y="1000"  />

      
      <glyph glyph-name="unid3" unicode="&#xd3;" d="M366-12Q273-12 200.50 31.50Q128 75 88.50 149.50Q49 224 49 312Q49 415 101 488.50Q153 562 234.50 599Q316 636 401 636Q496 636 568 591.50Q640 547 678.50 474Q717 401 717 319Q717 228 669 152Q621 76 540.50 32Q460-12 366-12M399 13Q455 13 499.50 45.50Q544 78 569 140.50Q594 203 594 290Q594 382 566 454.50Q538 527 485 568Q432 609 361 609Q270 609 221 540.50Q172 472 172 349Q172 252 201.50 175.50Q231 99 282.50 56Q334 13 399 13M289 678Q285 678 284 682.50Q283 687 286 689Q315 710 367 755Q397 781 412 793Q417 798 447.50 789.50Q478 781 501.50 769.50Q525 758 513 756Q451 741 399.50 722.50Q348 704 291 679L289 678Z"  horiz-adv-x="766" vert-adv-y="1000"  />

      
      </font>
</defs>
</svg>
